<svg id="Layer_1" data-name="Layer 1" xmlns="http://www.w3.org/2000/svg" viewBox="0 0 1137.35 754.45"><defs><style>.cls-1{fill:#d2ab60;}</style></defs><circle class="cls-1" cx="828.93" cy="298.6" r="13.42"/><path class="cls-1" d="M828.93,325.56A13.43,13.43,0,1,1,815.51,339,13.43,13.43,0,0,1,828.93,325.56ZM841.4,339a12.47,12.47,0,1,0-12.47,12.47A12.49,12.49,0,0,0,841.4,339Z"/><path class="cls-1" d="M828.61,244.62A13.42,13.42,0,1,1,815.19,258,13.43,13.43,0,0,1,828.61,244.62ZM841.08,258a12.47,12.47,0,1,0-12.47,12.47A12.48,12.48,0,0,0,841.08,258Z"/><path class="cls-1" d="M786.21,325.56A13.43,13.43,0,1,1,772.79,339,13.43,13.43,0,0,1,786.21,325.56ZM798.68,339a12.47,12.47,0,1,0-12.47,12.47A12.49,12.49,0,0,0,798.68,339Z"/><path class="cls-1" d="M786.21,285.65a12.95,12.95,0,1,1-13,13A12.94,12.94,0,0,1,786.21,285.65Z"/><path class="cls-1" d="M785.89,245.09A12.95,12.95,0,1,1,773,258,13,13,0,0,1,785.89,245.09Z"/><path class="cls-1" d="M735.07,349.07a21.71,21.71,0,0,0,5.45,3.51A69.64,69.64,0,0,1,730,349.85c-11.31-3.11-21.44-8.58-30.79-15.2a97.21,97.21,0,0,1-26.9-33.13C664.92,285.54,661,266.83,661,245V166.27c0-10.91-4.29-20.26-11.7-26.11-2-1.18-3.5-2.34-5.46-3.51,3.13.78,6.64,1.56,10.52,2.72a99.78,99.78,0,0,1,30.8,15.6,92,92,0,0,1,26.89,32.74c7.41,16,11.3,35.08,11.3,56.51V323C723.37,334.26,727.66,343.23,735.07,349.07Z"/><path class="cls-1" d="M615.41,352.58c-.19,0-.39,0-.6-.09l.21.09a68.74,68.74,0,0,1-10.52-2.73c-11.31-3.11-21.44-8.58-30.79-15.2a96.86,96.86,0,0,1-26.9-33.13c-7.41-16-11.29-34.69-11.29-56.12V160.77a31.3,31.3,0,0,0-11.31-20.61c-2-1.18-3.5-2.34-5.46-3.51,3.12.78,6.64,1.56,10.54,2.72,2.12.66,4.19,1.38,6.23,2.15,1.07.41,2.15.84,3.21,1.27a.52.52,0,0,0,.15.06l2.64,1.15c.29.14.57.26.86.41.94.42,1.86.86,2.77,1.33s2.08,1.06,3.1,1.61A99.35,99.35,0,0,1,560.07,155,92,92,0,0,1,587,187.71c.47,1,.9,2,1.33,3a.52.52,0,0,1,.06.15c.38.88.75,1.76,1.09,2.67.12.3.24.6.35.9.24.6.46,1.21.68,1.82.14.36.27.72.39,1.09.35,1,.68,1.94,1,2.93s.61,1.93.9,2.9a5.36,5.36,0,0,1,.14.54c.27.91.53,1.84.78,2.76.11.38.2.75.3,1.14.22.92.45,1.87.67,2.81s.47,2,.68,3.07q.51,2.52.94,5.1c.12.73.24,1.46.34,2.21.16,1.05.3,2.11.43,3.18.08.47.12.93.18,1.41.09.76.17,1.54.24,2.31.06.5.12,1,.15,1.48.11,1.08.2,2.16.27,3.25q.4,5.78.4,11.8V323c0,11.31,4.28,20.28,11.69,26.12A22.07,22.07,0,0,0,615.41,352.58Z"/><path class="cls-1" d="M597.87,148.34V176.4A106.49,106.49,0,0,0,569,143a113.07,113.07,0,0,0-33.51-17.32V70.38c0-11.29-4.29-20.26-11.7-26.1a21.21,21.21,0,0,0-5.46-3.51c3.11.78,6.62,1.55,10.52,2.73a93.41,93.41,0,0,1,57.69,48.33C594,107.81,597.87,126.91,597.87,148.34Z"/><path class="cls-1" d="M484.46,349.07a21.71,21.71,0,0,0,5.45,3.51,69,69,0,0,1-10.52-2.73c-11.31-3.11-21.44-8.58-30.79-15.2a97.09,97.09,0,0,1-26.9-33.13c-7.41-16-11.29-34.69-11.29-56.12v-175c0-11.29-4.29-20.26-11.7-26.1a21.21,21.21,0,0,0-5.46-3.51c3.13.78,6.62,1.55,10.52,2.73a93.41,93.41,0,0,1,57.69,48.33c7.4,16,11.3,35.08,11.3,56.51V323C472.76,334.26,477.05,343.23,484.46,349.07Z"/><circle class="cls-1" cx="368.49" cy="297.65" r="13.42"/><path class="cls-1" d="M368.49,324.61A13.42,13.42,0,1,1,355.07,338,13.43,13.43,0,0,1,368.49,324.61ZM381,338a12.47,12.47,0,1,0-12.47,12.47A12.49,12.49,0,0,0,381,338Z"/><path class="cls-1" d="M368.17,243.67a13.42,13.42,0,1,1-13.42,13.42A13.43,13.43,0,0,1,368.17,243.67Zm12.47,13.42a12.47,12.47,0,1,0-12.47,12.47A12.48,12.48,0,0,0,380.64,257.09Z"/><path class="cls-1" d="M325.77,324.61A13.42,13.42,0,1,1,312.35,338,13.43,13.43,0,0,1,325.77,324.61ZM338.24,338a12.47,12.47,0,1,0-12.47,12.47A12.49,12.49,0,0,0,338.24,338Z"/><path class="cls-1" d="M325.77,284.7a12.95,12.95,0,1,1-12.95,12.95A12.94,12.94,0,0,1,325.77,284.7Z"/><path class="cls-1" d="M325.45,244.14a12.95,12.95,0,1,1-12.94,12.95A13,13,0,0,1,325.45,244.14Z"/><circle class="cls-1" cx="943.97" cy="476.55" r="6.3"/><path class="cls-1" d="M944,489.65a5.86,5.86,0,1,0,5.85,5.86A5.86,5.86,0,0,0,944,489.65Zm0,12.16a6.3,6.3,0,1,1,6.3-6.3A6.31,6.31,0,0,1,944,501.81Z"/><path class="cls-1" d="M943.82,463.37a5.86,5.86,0,1,0-5.85-5.85A5.86,5.86,0,0,0,943.82,463.37Zm-6.3-5.85a6.3,6.3,0,1,1,6.3,6.3A6.31,6.31,0,0,1,937.52,457.52Z"/><path class="cls-1" d="M923.92,470.48a6.08,6.08,0,1,1-6.08,6.07A6.07,6.07,0,0,1,923.92,470.48Z"/><path class="cls-1" d="M923.77,451.44a6.08,6.08,0,1,1-6.08,6.08A6.08,6.08,0,0,1,923.77,451.44Z"/><path class="cls-1" d="M929.77,495.51a5.85,5.85,0,1,0-5.85,5.85A5.86,5.86,0,0,0,929.77,495.51Zm.45,0a6.3,6.3,0,1,1-6.3-6.3A6.31,6.31,0,0,1,930.22,495.51Z"/><path class="cls-1" d="M878.5,590.79c.93-1.4,2-2.94,3-4.63a.35.35,0,0,0,.05-.08c0,.24,0,.48-.05.72a14.37,14.37,0,0,0,1.9,7.09,108.77,108.77,0,0,0,6.15,10.26,30,30,0,0,1,2.8,5.33c.48-.6,1-1.27,1.53-2q2.54-3.16,20.16-23.67a1.72,1.72,0,0,1,1.17-.64,1.53,1.53,0,0,1,1.27.41,1.94,1.94,0,0,1,.63,1.22,1.45,1.45,0,0,1-.45,1.26q-17.54,20.43-20.06,23.59c-1,1.33-2,2.62-3,3.89a21.2,21.2,0,0,1,.18,9.94,29,29,0,0,1-3.07,8.22,19.48,19.48,0,0,1-4.7,5.6,7.45,7.45,0,0,1-4.7,2.17,3.09,3.09,0,0,1-2.26-.9q-4.79-4.61,10.76-25.76a24.48,24.48,0,0,0-3.16-6.68,96.08,96.08,0,0,1-6.69-11.3A21.79,21.79,0,0,1,878.5,590.79Zm8.65,40.11a21.22,21.22,0,0,0,3.52-13.29,104.22,104.22,0,0,0-6.1,9.67,33.88,33.88,0,0,0-2.8,6.1,6.09,6.09,0,0,0-.32,2.58,5.78,5.78,0,0,0,2.44-1.4A17.68,17.68,0,0,0,887.15,630.9Z"/><path class="cls-1" d="M881.81,584.9a1.32,1.32,0,0,1-.22,1.18,11.89,11.89,0,0,1,.2-1.24Z"/><path class="cls-1" d="M881.05,583.77a1.86,1.86,0,0,1,.74,1.07,11.89,11.89,0,0,0-.2,1.24.35.35,0,0,1-.05.08c-1.09,1.69-2.11,3.23-3,4.63a13.72,13.72,0,0,1-.48-4.17,14.79,14.79,0,0,1,.18-1.66l.45-.69a1.8,1.8,0,0,1,1.09-.73A1.56,1.56,0,0,1,881.05,583.77Z"/><path class="cls-1" d="M878.2,585a13.39,13.39,0,0,1,1.76-4.85,14,14,0,0,1,4.75-4.7A12.49,12.49,0,0,1,890,573.6a9.76,9.76,0,0,1,5.15.82,1.81,1.81,0,0,1,.86,1,1.71,1.71,0,0,1-1.09,2.17,1.79,1.79,0,0,1-1.31,0q-3.25-1.53-7.13.81a9.6,9.6,0,0,0-4.73,6.45,1.86,1.86,0,0,0-.74-1.07,1.56,1.56,0,0,0-1.31-.23,1.8,1.8,0,0,0-1.09.73Z"/><path class="cls-1" d="M880.6,499.07a3.35,3.35,0,0,0,.89-2.33c0-1.18.09-2.36.12-3.52s0-2.5,0-4,0-3.33,0-5.42,0-4.66,0-7.71q-1.4-2-3.1-4.41c-1.13-1.6-2.22-3.07-3.25-4.42l-3.56-4.91-2.56-3.57-1.9-2.67c-.54-.77-1.09-1.52-1.66-2.25-.78-1-1.56-2-2.36-2.86a5.84,5.84,0,0,0-2.37-1.71l.08-.38c.36.05.87.1,1.51.15s1.32.09,2,.12l2,.08,1.59,0,1.82,0,2.67-.08c.93,0,1.81-.07,2.63-.12s1.4-.1,1.71-.15l.15.38c-.26.11-.58.22-1,.35a4.37,4.37,0,0,0-1,.51,1.25,1.25,0,0,0-.58.77,1.75,1.75,0,0,0,.35,1.24c.72,1.19,1.4,2.28,2,3.29s1.34,2.07,2.09,3.18,1.61,2.35,2.59,3.72,2.17,3,3.57,4.91c1,1.35,1.79,2.38,2.28,3.1s.94,1.37,1.36,1.94l3.95-5.42,2.9-4c.8-1.11,1.56-2.18,2.29-3.22s1.44-2.1,2.17-3.21,1.6-2.44,2.63-4a2.37,2.37,0,0,0,.43-1.28,1.53,1.53,0,0,0-.39-.89,2.53,2.53,0,0,0-.89-.62l-.93-.39.08-.38c.67.1,1.6.19,2.78.27s2.17.11,2.95.11a17.6,17.6,0,0,0,2.13-.11l2.05-.27.08.38a7,7,0,0,0-2.4,1.48,16.7,16.7,0,0,0-2.4,2.63c-.88,1.13-1.64,2.13-2.29,3l-2.05,2.71c-.73,1-1.55,2.07-2.48,3.33l-3.56,4.84-3,3.88c-1.13,1.49-2.22,3-3.25,4.41V489c0,1.57,0,2.94,0,4.1s.06,2.37.11,3.6a3.35,3.35,0,0,0,.9,2.33,7.8,7.8,0,0,0,1.51,1l-.08.31a10.52,10.52,0,0,0-1.28-.16c-.59-.05-1.23-.09-1.9-.12l-1.89,0h-2.75l-1.9,0q-1,0-1.86.12a10.25,10.25,0,0,0-1.28.16l-.08-.31A7.8,7.8,0,0,0,880.6,499.07Z"/><path class="cls-1" d="M853.62,590.14a26.35,26.35,0,0,0-1.76,8.63,13.23,13.23,0,0,0,1.22,6.82,3.73,3.73,0,0,0,2.62,2.08,5.67,5.67,0,0,0,3.48-.45,14,14,0,0,0,4.15-2.94c1.48-1.41,2.82-2.8,4-4.15a64,64,0,0,0,4.21-5.43q2.38-3.37,3.66-5.24c.75-1.1,1.75-2.6,3-4.5a14.79,14.79,0,0,0-.18,1.66,13.72,13.72,0,0,0,.48,4.17c-.77,1.15-1.49,2.2-2.15,3.15q-2.22,3.16-5,6.73a49,49,0,0,1-5.1,5.69,25.2,25.2,0,0,1-4.84,3.53,10,10,0,0,1-4.79,1.4,7.61,7.61,0,0,1-1.63-.18,7.39,7.39,0,0,1-5-3.8,19.46,19.46,0,0,1-1.58-8.9,28.45,28.45,0,0,1,.36-3.44l.46-.54a80.57,80.57,0,0,0,6.1-8.27l.08.05A21.59,21.59,0,0,0,853.62,590.14Z"/><path class="cls-1" d="M852.77,583.9a2,2,0,0,1,.72-.36,1.73,1.73,0,0,1,1.31.18,1.54,1.54,0,0,1,.76,1.09,1.92,1.92,0,0,1-.22,1.35,80.57,80.57,0,0,1-6.1,8.27l-.46.54a31.78,31.78,0,0,1,1.59-6.09A24.55,24.55,0,0,1,852.77,583.9Z"/><path class="cls-1" d="M853.49,583.54a2,2,0,0,0-.72.36,15.31,15.31,0,0,1,2.16-2.71q2.76-2.7,5.2-1.89a3.81,3.81,0,0,1,1,.49,5.19,5.19,0,0,1,1.08,1.27,4.41,4.41,0,0,1,.64,2.48,18.7,18.7,0,0,1-.55,4,1.73,1.73,0,0,1-.76,1.09,1.76,1.76,0,0,1-2.4-.64,1.58,1.58,0,0,1-.18-1.26c.6-2.29.63-3.68.09-4.16a2.41,2.41,0,0,0-1.13.54,10,10,0,0,0-2,2.4c-.16.23-.31.47-.46.72l-.08-.05a1.92,1.92,0,0,0,.22-1.35,1.54,1.54,0,0,0-.76-1.09A1.73,1.73,0,0,0,853.49,583.54Z"/><path class="cls-1" d="M836.9,573.33a2.19,2.19,0,0,1-1.35,2.71,4.52,4.52,0,0,1-2.08.46c-1.75-.12-2.29-.85-1.63-2.17a4.5,4.5,0,0,1,2.35-2.17C835.7,571.68,836.6,572.07,836.9,573.33Z"/><path class="cls-1" d="M833.78,450.23a7.79,7.79,0,0,0-1.55-1l.08-.31a5.62,5.62,0,0,0,1.35.19l1.86.12c.65.05,1.28.07,1.9.07h1.4l1.35,0,1.9-.08c.67,0,1.3-.07,1.9-.12s1-.1,1.28-.15l.07.31a6.22,6.22,0,0,0-1.59,1,3.29,3.29,0,0,0-.81,2.36c0,1.24-.09,2.52-.11,3.84s0,2.83,0,4.53V488.3c0,1.71,0,3.23,0,4.57s.06,2.64.11,3.87a3.14,3.14,0,0,0,.81,2.33,7,7,0,0,0,1.59,1l-.07.31a8.76,8.76,0,0,0-1.28-.12l-1.9-.08-1.9-.08-1.35,0h-1.4l-1.9,0q-1,0-1.86.12c-.59,0-1,.1-1.35.16l-.08-.31a9.09,9.09,0,0,0,1.55-1,3,3,0,0,0,.85-2.33c0-1.23.09-2.5.12-3.79s0-2.76,0-4.41v-28.2c0-1.55,0-2.93,0-4.14s-.07-2.42-.12-3.61A3.17,3.17,0,0,0,833.78,450.23Z"/><path class="cls-1" d="M830.49,584a1.65,1.65,0,0,1,.81-1.09,1.68,1.68,0,0,1,1.31-.18,1.65,1.65,0,0,1,1,.81,1.61,1.61,0,0,1,.18,1.27q-1.08,4.34-1.58,7.64a31.19,31.19,0,0,0-.45,5,12,12,0,0,0,.36,2.85,3.88,3.88,0,0,0,.54,1.35,1.71,1.71,0,0,0,.41.32q2.34,1,8.54-4.7a61.92,61.92,0,0,0,10.71-13,1.58,1.58,0,0,1,.41-.37,24.55,24.55,0,0,0-2.4,5,31.78,31.78,0,0,0-1.59,6.09,49.17,49.17,0,0,1-7.58,7.19c-3,2.29-5.5,3.43-7.55,3.43a4.67,4.67,0,0,1-1.9-.36Q825.71,602.62,830.49,584Z"/><path class="cls-1" d="M796.79,500.11c-.64,0-1.26.07-1.85.12s-1.05.1-1.36.16l-.08-.31a8.72,8.72,0,0,0,1.55-1,3,3,0,0,0,.85-2.33c.06-1.23.09-2.52.12-3.87s0-2.86,0-4.57V461c0-1.7,0-3.22,0-4.53s-.06-2.6-.12-3.84a3.17,3.17,0,0,0-.85-2.36,7.51,7.51,0,0,0-1.55-1l.08-.31a5.63,5.63,0,0,0,1.36.19l1.85.12c.65.05,1.28.07,1.9.07h1.4l1.35,0,1.9-.08c.67,0,1.3-.07,1.9-.12s1-.1,1.28-.15l.07.31a6.17,6.17,0,0,0-1.58,1,3.25,3.25,0,0,0-.82,2.36c-.05,1.19-.09,2.39-.11,3.61s0,2.59,0,4.14v12.08h30.75v2.95H804v13.17c0,1.65,0,3.12,0,4.41s.06,2.56.11,3.79a3.1,3.1,0,0,0,.82,2.33,7,7,0,0,0,1.58,1l-.07.31a8.76,8.76,0,0,0-1.28-.12l-1.9-.08-1.9-.08-1.35,0h-1.4Z"/><path class="cls-1" d="M777.08,586.16a76.25,76.25,0,0,1-4.59,6.41,12,12,0,0,1,0-1.89,14,14,0,0,1,1.9-6.46,3.54,3.54,0,0,1,.26-.41,2,2,0,0,1,.6-.27,1.73,1.73,0,0,1,1.31.18,1.51,1.51,0,0,1,.76,1.09A1.87,1.87,0,0,1,777.08,586.16Z"/><path class="cls-1" d="M879.1,547a1.59,1.59,0,0,1,.37,1.26,1.78,1.78,0,0,1-.64,1.18,1.53,1.53,0,0,1-2.17,0q-3.7-1.28-46.62-.64-6,24.85-12,53.86-7.24,34.8-8.77,47.81a.8.8,0,0,1,.36.09,1.66,1.66,0,0,1,1,.9,2.09,2.09,0,0,1,.09,1.36c-.37.9-.65,1.58-.86,2a5.31,5.31,0,0,1-1,1.35,1.83,1.83,0,0,1-1.36.68,2.64,2.64,0,0,1-.63-.09,2.07,2.07,0,0,1-1.4-1.9,12.94,12.94,0,0,1,.23-4.06q.36-3.89,1.62-10.94,2.26-13.63,6.78-35.33,6.06-29.55,12.38-55.76c-1.14.06-2.29.09-3.43.09q-13.56,24.32-35.7,66.33a24.31,24.31,0,0,1,.72,12.47,23.32,23.32,0,0,1-7,13,10.2,10.2,0,0,1-4.16,2.62,3.73,3.73,0,0,1-3.34-.45q-3.35-2.62,1.71-12.38L777.8,626q3.8-7.32,5.79-11a29.44,29.44,0,0,0-2.53-4.79,98.41,98.41,0,0,1-6.6-11.11,18.37,18.37,0,0,1-2-6.52,76.25,76.25,0,0,0,4.59-6.41l.07,0a10.52,10.52,0,0,0-1.25,4.66,14.7,14.7,0,0,0,2,7.28,101.68,101.68,0,0,0,6.1,10.17,25.13,25.13,0,0,1,1.62,2.8Q806.09,572.34,819,549q-11.93.19-31.72.64-16.08.36-18.89.36h-.09a1.71,1.71,0,0,1-1.17-.5,1.59,1.59,0,0,1-.54-1.22,1.66,1.66,0,0,1,.49-1.22,1.68,1.68,0,0,1,1.22-.5q2.9,0,18.89-.36,19-.45,33.8-.72,6.13-11,11.57-20.33a1.49,1.49,0,0,1,2.12-.77,1.58,1.58,0,0,1,1,2q-2.18,8-4.79,18.89,13.54-.27,22.64-.18l14,.13a52.23,52.23,0,0,1,7.46.46,22.66,22.66,0,0,1,3.12.63A2.1,2.1,0,0,1,879.1,547Zm-51.78-1.63c.6-2.59,1.21-5,1.81-7.32q-1.89,3.35-4.16,7.32h2.35ZM781.51,635a21,21,0,0,0,3.34-15c-.48,1-1.22,2.47-2.21,4.34s-1.58,3-1.76,3.34l-2.45,4.52c-2,3.86-2.92,6.51-2.62,8a5.67,5.67,0,0,0,2.44-1.4A16.48,16.48,0,0,0,781.51,635Z"/><path class="cls-1" d="M777.08,586.16a1.87,1.87,0,0,0,.22-1.35,1.51,1.51,0,0,0-.76-1.09,1.73,1.73,0,0,0-1.31-.18,2,2,0,0,0-.6.27,13.24,13.24,0,0,1,4.44-4.33,11.9,11.9,0,0,1,5.33-1.76,9.73,9.73,0,0,1,5.06.85,1.52,1.52,0,0,1,.95.95,1.79,1.79,0,0,1-.09,1.36,1.62,1.62,0,0,1-1,.9,1.55,1.55,0,0,1-1.31-.13q-3.25-1.54-7.13.81a9.91,9.91,0,0,0-3.73,3.74Z"/><path class="cls-1" d="M762,499.73a34.2,34.2,0,0,1-5.54,1.47,34.07,34.07,0,0,1-17.12-1.43,30,30,0,0,1-9.53-5.46,25.92,25.92,0,0,1-6.5-8.52,27,27,0,0,1,0-22.24,26.25,26.25,0,0,1,6.5-8.55,28.89,28.89,0,0,1,9.53-5.46,34.08,34.08,0,0,1,11.39-1.9,35.7,35.7,0,0,1,5.73.46,30.47,30.47,0,0,1,5.54,1.44,26.41,26.41,0,0,1,5,2.4,20.55,20.55,0,0,1,4.11,3.29l.31,8.21-.47.15a22.71,22.71,0,0,0-7.7-9.37,21.39,21.39,0,0,0-12.51-3.48,18.93,18.93,0,0,0-8,1.74,20.09,20.09,0,0,0-6.62,4.88,24.12,24.12,0,0,0-4.54,7.55,28.87,28.87,0,0,0,0,19.52,24.12,24.12,0,0,0,4.54,7.55,19.57,19.57,0,0,0,6.62,4.84,19.21,19.21,0,0,0,8,1.71q7.43,0,12.12-2.36a20.9,20.9,0,0,0,7.94-7.25l.46.16-.15,4.95a21,21,0,0,1-4.11,3.3A27.68,27.68,0,0,1,762,499.73Z"/><path class="cls-1" d="M758.64,573.33a2.19,2.19,0,0,1-1.35,2.71,4.49,4.49,0,0,1-2.08.46c-1.75-.12-2.29-.85-1.63-2.17a4.5,4.5,0,0,1,2.35-2.17C757.44,571.68,758.34,572.07,758.64,573.33Z"/><path class="cls-1" d="M752.23,584a1.65,1.65,0,0,1,.81-1.09,1.68,1.68,0,0,1,1.31-.18,1.65,1.65,0,0,1,1,.81,1.61,1.61,0,0,1,.18,1.27q-1.08,4.34-1.58,7.64a31.19,31.19,0,0,0-.45,5,12,12,0,0,0,.36,2.85,3.88,3.88,0,0,0,.54,1.35,1.71,1.71,0,0,0,.41.32q2.35,1,8.54-4.7a61.92,61.92,0,0,0,10.71-13,2.09,2.09,0,0,1,.53-.46,3.54,3.54,0,0,0-.26.41,14,14,0,0,0-1.9,6.46,12,12,0,0,0,0,1.89c-.48.61-1,1.23-1.51,1.86a49.88,49.88,0,0,1-8,7.73q-4.47,3.44-7.55,3.43a4.7,4.7,0,0,1-1.9-.36Q747.45,602.62,752.23,584Z"/><path class="cls-1" d="M740.48,587.07a1.57,1.57,0,0,0,.35-.75l.86.19q-2,8.81-3.87,17.86-5.21,24.72-6.65,35.2h.18a1.78,1.78,0,0,1,1,.91,1.59,1.59,0,0,1,.05,1.35c-.36,1-.65,1.79-.86,2.31a5.57,5.57,0,0,1-1,1.49,1.8,1.8,0,0,1-1.35.72,2.72,2.72,0,0,1-.64-.09q-1.26-.45-1.35-2.49a67.12,67.12,0,0,1,1.26-10q1.63-9.76,4.88-25.48,1.91-9.1,3.81-17.71A28,28,0,0,0,740.48,587.07Z"/><path class="cls-1" d="M737.24,590.6q.71-3.18,1.41-6.29l.21,0a1.74,1.74,0,0,1,1.31.36,1.68,1.68,0,0,1,.67,1.17,1.8,1.8,0,0,1,0,.52,1.57,1.57,0,0,1-.35.75A28,28,0,0,1,737.24,590.6Z"/><path class="cls-1" d="M740.17,584.63a1.74,1.74,0,0,0-1.31-.36l-.21,0q4.86-21.55,9.69-39.8.64-2.35,1.36-4.93t2.08-6.46q1.35-3.89,2.66-6.82a31.31,31.31,0,0,1,2.94-5.24c1.08-1.54,2.11-2.37,3.07-2.49a2.26,2.26,0,0,1,2.44,1.08q1.9,2.8-1.85,13.24a126.75,126.75,0,0,1-12.15,23.82l-.18.18q-3.62,14.42-7,29.62l-.86-.19a1.8,1.8,0,0,0,0-.52A1.68,1.68,0,0,0,740.17,584.63Zm11.7-39.85q7.23-13.65,8.13-21.42Q756,529.33,751.87,544.78Z"/><path class="cls-1" d="M738.65,584.31q-.71,3.11-1.41,6.29a26.51,26.51,0,0,1-5.61,4q-5.16,2.71-9.67,1.72a11.52,11.52,0,0,1-3.53,4.83,7.5,7.5,0,0,1-4.7,1.76h-.09a6.8,6.8,0,0,1-4.29-1.67,8.28,8.28,0,0,1-2.57-4.38,13.23,13.23,0,0,1,.4-8.45,11.89,11.89,0,0,1,4.57-5.92,1.52,1.52,0,0,1,1.44-.18,6.88,6.88,0,0,1,2.31-3.07,4,4,0,0,1,3.11-.82,4.08,4.08,0,0,1,1.68.77,6.68,6.68,0,0,1,1.53,1.85A10.59,10.59,0,0,1,723,584.9a34.15,34.15,0,0,1,.18,6.24q-.09.9-.27,1.8,3.43.72,7.64-1.72a24.38,24.38,0,0,0,7.18-6.32A1.7,1.7,0,0,1,738.65,584.31Zm-19,6.64a22.67,22.67,0,0,0,0-3.75c-.09-1.05-.19-1.91-.31-2.57a7.78,7.78,0,0,0-.45-1.63,4.23,4.23,0,0,0-.5-.9c-.15-.18-.26-.27-.32-.27H718c-.24,0-.54.19-.9.59a3.81,3.81,0,0,0-.82,1.58,6.1,6.1,0,0,0,.19,3.88,7.65,7.65,0,0,0,3.16,3.62Zm-3.21,7.23a8.71,8.71,0,0,0,2.3-3.16q-5.87-3.25-6.14-8.86a9.09,9.09,0,0,0-2.49,4.61,9.26,9.26,0,0,0,0,5.06c.66,2.35,1.87,3.53,3.61,3.53A4.23,4.23,0,0,0,716.4,598.18Z"/><path class="cls-1" d="M639.54,566.37a1.43,1.43,0,0,1-1.17.55q-6.69.45-8.68-4.34c-.9-2.11-.89-5,0-8.54a44.28,44.28,0,0,1,4.43-10.71,92.33,92.33,0,0,1,6.68-10.17,53.1,53.1,0,0,1,6.83-7.63q5.42-4.69,8.49-2.8,3.71,2.16,1.45,12.38l-.37,1.89q-5.78,27.57-10.3,49.16,12.28-3.79,35.79-10.93l.63-.18a6.67,6.67,0,0,0,.72-.23,1.82,1.82,0,0,1,.64-.13q9.21-48.35,12.19-60a1.7,1.7,0,0,1,.82-1.08,1.68,1.68,0,0,1,1.31-.18,1.65,1.65,0,0,1,1,.81,1.6,1.6,0,0,1,.18,1.27q-2.89,11.38-11.84,58,14.82-4.43,20.69-6.32a1.86,1.86,0,0,1,1.32.13,1.47,1.47,0,0,1,.85.95,2.52,2.52,0,0,1,0,1,2,2,0,0,1-.36.77,1.64,1.64,0,0,1-.72.54q-6.06,1.9-22.5,6.87-1.28,7-3.62,19.34c-1.26,6.45-2.18,11.23-2.75,14.37s-1.21,6.47-1.9,10-1.22,6.11-1.58,7.68a1.56,1.56,0,0,1-1.72,1.35h-.36a1.86,1.86,0,0,1-1-.76,1.56,1.56,0,0,1-.23-1.31q1-5.07,6.15-32,2.18-11.76,3.34-17.63a.17.17,0,0,0-.13,0,.2.2,0,0,1-.14,0q-24.76,7.5-37.5,11.48-10.49,50.88-12.2,64.07a1.93,1.93,0,0,1,.86.9,1.45,1.45,0,0,1,0,1.27c-.3.84-.54,1.48-.72,1.9a4.32,4.32,0,0,1-.81,1.22,1.61,1.61,0,0,1-1.18.59,2.71,2.71,0,0,1-.63-.1c-.84-.18-1.31-.81-1.4-1.89a17.66,17.66,0,0,1,.41-4.52q.54-4.15,1.89-11.84,2.44-13.29,7.23-37,1.28-6.33,2.71-13.38-7.86,2.53-14.09,4.61-24.68,8.14-30,11.66a1.62,1.62,0,0,1,.73,1.72,1.59,1.59,0,0,1-1.72,1.44.8.8,0,0,1-.36-.09c-1.93-.36-3-1.23-3.07-2.62,0-1,.63-1.94,1.89-2.93a37.93,37.93,0,0,1,7.68-3.93q7.6-3.17,21.78-8l17.9-5.78q4.61-22.32,10.66-51.06l.45-1.81a28.54,28.54,0,0,0,.72-5.64,10.06,10.06,0,0,0-.18-2.62,1,1,0,0,0-.36-.5.92.92,0,0,0-.58,0,6.68,6.68,0,0,0-1.5.72,16.42,16.42,0,0,0-2.34,1.72,46.45,46.45,0,0,0-6.65,7.32,77,77,0,0,0-6.19,9.58,58.82,58.82,0,0,0-3.07,6.78,26.21,26.21,0,0,0-1.49,5.55,7.62,7.62,0,0,0,.32,3.93c.66,1.63,2.37,2.35,5.15,2.17a1.51,1.51,0,0,1,1.26.41,1.76,1.76,0,0,1,.59,1.22A1.73,1.73,0,0,1,639.54,566.37Z"/><path class="cls-1" d="M678.21,452a34.44,34.44,0,0,0-5.08-.38V449h2.17a36.06,36.06,0,0,1,9.14,1,19.7,19.7,0,0,1,6.28,2.75,11.15,11.15,0,0,1,3.64,4.06,11,11,0,0,1,1.16,5,12,12,0,0,1-1.24,5.58,13.35,13.35,0,0,1-3.33,4.14,18.16,18.16,0,0,1-4.88,2.87,28.89,28.89,0,0,1-6,1.66,11.15,11.15,0,0,1,4.33,3.06,43.41,43.41,0,0,1,3.84,4.92q1.82,2.71,3.48,5.62a60.28,60.28,0,0,0,3.29,5.15,18.18,18.18,0,0,0,3.22,3.52,3.25,3.25,0,0,0,3.21.74l.08.46a6,6,0,0,1-2.79,1,21.69,21.69,0,0,1-3,.23,10.36,10.36,0,0,1-6.12-1.7,14.76,14.76,0,0,1-4-4.26,28.75,28.75,0,0,1-2.67-5.58c-.72-2-1.45-3.92-2.17-5.73a25.3,25.3,0,0,0-2.4-4.69,5.15,5.15,0,0,0-3.33-2.36h-.42v-2.86a18.35,18.35,0,0,0,3.36-.31,12.28,12.28,0,0,0,4.61-1.82,10.19,10.19,0,0,0,3.33-3.72,12.28,12.28,0,0,0,1.28-5.93,9.71,9.71,0,0,0-1.24-5.23,8.83,8.83,0,0,0-3.25-3.09A13.39,13.39,0,0,0,678.21,452Z"/><path class="cls-1" d="M674,499.07a7.17,7.17,0,0,0,1.58,1l-.07.31a10.52,10.52,0,0,0-1.28-.16q-.88-.08-1.86-.12l-1.86,0h-2.75l-1.93,0c-.68,0-1.32.07-1.94.12a10.63,10.63,0,0,0-1.32.16l-.07-.31a9,9,0,0,0,1.54-1,3.06,3.06,0,0,0,.86-2.33c0-1.23.09-2.52.11-3.87s0-2.85,0-4.53V461c0-1.7,0-3.22,0-4.53s-.06-2.6-.11-3.84a3.28,3.28,0,0,0-.78-2.32,2.71,2.71,0,0,0-1.55-.7l-.07-.31a22,22,0,0,1,2.32-.11l4.06-.08c1.48,0,2.84,0,4.11,0h.19v2.56q-.15,3.48-.15,8.87v13.05c.55.05,1.11.08,1.67.08v2.86H673v13.71c0,1.24,0,2.36,0,3.37s.06,2.08.11,3.21A3.14,3.14,0,0,0,674,499.07Z"/><path class="cls-1" d="M614.42,462.39l-1.35,3.14c-.5,1.14-1.08,2.48-1.75,4s-1.57,3.54-2.71,6l-2.86,6.35h20.52l-2.94-6.5c-1.34-2.89-2.36-5.13-3.06-6.7s-1.27-2.87-1.7-3.88l-1.17-2.67c-.33-.77-.81-1.81-1.43-3.1C615.35,460.31,614.83,461.44,614.42,462.39ZM632,499.69a3.24,3.24,0,0,0,.89-.62,1.92,1.92,0,0,0,.5-.93,2.67,2.67,0,0,0-.19-1.4c-.73-1.75-1.51-3.53-2.37-5.34s-1.95-4.1-3.29-6.89H604.66c-.57,1.39-1.07,2.64-1.51,3.75l-1.24,3.14c-.39,1-.75,1.9-1.08,2.75s-.69,1.72-1.05,2.59a2.05,2.05,0,0,0-.23,1.4,2.08,2.08,0,0,0,.54.93,3,3,0,0,0,.93.62l.93.39-.08.31a23.16,23.16,0,0,0-2.55-.24c-1,0-1.94-.07-2.71-.07s-1.54,0-2.44.07-1.72.13-2.44.24l-.08-.31a7.51,7.51,0,0,0,4.18-3.95c.62-1.24,1.24-2.47,1.86-3.68s1.32-2.6,2.09-4.15,1.65-3.35,2.64-5.42,2.16-4.57,3.56-7.51,2.73-5.77,4-8.48,2.46-5.23,3.52-7.56,2-4.41,2.83-6.27,1.5-3.41,2-4.65h1.09q.76,1.86,2,4.65t2.83,6.27c1.05,2.33,2.22,4.84,3.48,7.56s2.6,5.53,4,8.48,2.58,5.41,3.56,7.39,1.83,3.72,2.52,5.19,1.34,2.79,1.94,3.95,1.2,2.37,1.82,3.61a10.49,10.49,0,0,0,2.17,2.94,7.32,7.32,0,0,0,2.4,1.63l-.08.31c-.36-.06-.85-.11-1.47-.16s-1.28-.09-2-.12l-2,0h-3.22l-2.36,0c-.82,0-1.61.07-2.36.12a15.11,15.11,0,0,0-1.59.16l-.08-.31Z"/><path class="cls-1" d="M598.8,545.91a1.22,1.22,0,0,0,.34.93,4.32,4.32,0,0,0,.62.4l0,.12-.51-.06-.76,0h-2.63l-.76,0-.51.06,0-.12a3.27,3.27,0,0,0,.64-.4,1.25,1.25,0,0,0,.32-.93c0-.5,0-1,0-1.55s0-1.15,0-1.82V527.93a15.94,15.94,0,0,0-3.85.49,9.77,9.77,0,0,0-3.56,1.65l-.15-.15.21-.64c.11-.3.21-.61.33-.94s.22-.64.31-.92a2.91,2.91,0,0,0,.14-.51h16.33a2.17,2.17,0,0,0,.14.51c.09.28.19.59.29.92s.21.64.31.93.17.49.22.62l-.16.15a9.54,9.54,0,0,0-3.55-1.64,16.56,16.56,0,0,0-3.82-.47v14.61c0,.67,0,1.28,0,1.82S598.78,545.41,598.8,545.91Z"/><path class="cls-1" d="M578.48,527.73a7.29,7.29,0,0,0-1.65-.2,4,4,0,0,0-2.79.93,3,3,0,0,0-1,2.23,2.71,2.71,0,0,0,.81,2,7.58,7.58,0,0,0,2,1.38c.81.39,1.69.78,2.64,1.16a14.33,14.33,0,0,1,2.63,1.4,7.07,7.07,0,0,1,2,2,5.51,5.51,0,0,1,.81,3.13,5.46,5.46,0,0,1-2.2,4.52,7.13,7.13,0,0,1-2.36,1.16,9.89,9.89,0,0,1-2.81.39,11.28,11.28,0,0,1-1.72-.14,12,12,0,0,1-1.72-.39,8.7,8.7,0,0,1-1.57-.62,5.43,5.43,0,0,1-1.22-.83l-.53-3.85.25-.09a9.25,9.25,0,0,0,1.41,2.2,8.44,8.44,0,0,0,1.64,1.46,6.74,6.74,0,0,0,1.77.82,6.51,6.51,0,0,0,1.75.26,4.89,4.89,0,0,0,3.24-1.05,3.8,3.8,0,0,0,1.25-3.07,3.1,3.1,0,0,0-.81-2.2,7.84,7.84,0,0,0-2-1.53,23.05,23.05,0,0,0-2.59-1.24,17,17,0,0,1-2.59-1.32,7.78,7.78,0,0,1-2-1.77,4.09,4.09,0,0,1-.8-2.6,5.57,5.57,0,0,1,.52-2.49,5.18,5.18,0,0,1,1.43-1.77,6.42,6.42,0,0,1,2.11-1,8.92,8.92,0,0,1,2.57-.36,11.25,11.25,0,0,1,3.19.42,5.48,5.48,0,0,1,2.26,1.22l.31,3.35-.15.12a6.8,6.8,0,0,0-1.12-1.81,6,6,0,0,0-1.41-1.18A6.06,6.06,0,0,0,578.48,527.73Z"/><path class="cls-1" d="M557.45,452a34.4,34.4,0,0,0-5.07-.38V449h2.17a36.11,36.11,0,0,1,9.14,1,19.54,19.54,0,0,1,6.27,2.75,11.06,11.06,0,0,1,3.64,4.06,10.89,10.89,0,0,1,1.16,5,12,12,0,0,1-1.24,5.58,13.07,13.07,0,0,1-3.33,4.14,18.16,18.16,0,0,1-4.88,2.87,28.72,28.72,0,0,1-6,1.66,11.18,11.18,0,0,1,4.34,3.06,43.36,43.36,0,0,1,3.83,4.92c1.21,1.81,2.38,3.68,3.49,5.62a57.92,57.92,0,0,0,3.29,5.15,17.85,17.85,0,0,0,3.21,3.52,3.26,3.26,0,0,0,3.22.74l.07.46a6,6,0,0,1-2.78,1,21.91,21.91,0,0,1-3,.23,10.36,10.36,0,0,1-6.12-1.7,14.49,14.49,0,0,1-4-4.26,29.37,29.37,0,0,1-2.68-5.58q-1.08-3-2.16-5.73a25.93,25.93,0,0,0-2.41-4.69,5.1,5.1,0,0,0-3.33-2.36h-.42v-2.86a18.54,18.54,0,0,0,3.37-.31,12.35,12.35,0,0,0,4.61-1.82,10.37,10.37,0,0,0,3.33-3.72,12.4,12.4,0,0,0,1.27-5.93,9.8,9.8,0,0,0-1.23-5.23,8.94,8.94,0,0,0-3.26-3.09A13.39,13.39,0,0,0,557.45,452Z"/><path class="cls-1" d="M553.1,526.91h10.35a2.32,2.32,0,0,0,.12.59c.09.27.18.56.3.87l.32.88.25.64-.15.18a7.93,7.93,0,0,0-2-1.31A10.83,10.83,0,0,0,560,528a15.44,15.44,0,0,0-2.5-.26q-1.31,0-2.73.06c0,.77,0,1.44,0,2s0,1.17,0,1.78v4.66c1.53,0,2.75-.06,3.67-.11a12.51,12.51,0,0,0,2.13-.26,2.1,2.1,0,0,0,1-.5,1.82,1.82,0,0,0,.4-.77l.16.06c0,.37-.08.7-.1,1s0,.64,0,1,0,.78,0,1.07.06.63.1,1l-.16.06a2,2,0,0,0-.4-.82,1.87,1.87,0,0,0-1-.49,11.88,11.88,0,0,0-2.13-.24c-.92,0-2.14-.06-3.67-.06v5.55c0,.7,0,1.33,0,1.89s0,1.08,0,1.58q1.59,0,3.12,0a27.15,27.15,0,0,0,2.94-.28,15.93,15.93,0,0,0,2.64-.64,7.92,7.92,0,0,0,2.15-1.1l.15.13-.26.54-.43.9q-.24.48-.42.9a1.69,1.69,0,0,0-.19.54H551.81l-.74,0-.51.06,0-.12a5,5,0,0,0,.62-.4,1.26,1.26,0,0,0,.34-.93c0-.5,0-1,0-1.55s0-1.15,0-1.83V531.59c0-.68,0-1.28,0-1.81s0-1,0-1.53a1.22,1.22,0,0,0-.34-.93,4.14,4.14,0,0,0-.62-.41l0-.15.51.06.74,0,.75,0Z"/><path class="cls-1" d="M551.56,500.11l-1.85,0H547l-1.94,0c-.67,0-1.32.07-1.94.12a10.15,10.15,0,0,0-1.31.16l-.08-.31a9.5,9.5,0,0,0,1.55-1,3.06,3.06,0,0,0,.85-2.33q.07-1.85.12-3.87t0-4.53V461c0-1.7,0-3.22,0-4.53s-.07-2.6-.12-3.84a3.28,3.28,0,0,0-.77-2.32,2.77,2.77,0,0,0-1.55-.7l-.08-.31a22.13,22.13,0,0,1,2.32-.11l4.07-.08c1.47,0,2.84,0,4.1,0h.2v2.56q-.17,3.48-.16,8.87v13.05c.55.05,1.11.08,1.67.08v2.86h-1.67v13.71c0,1.24,0,2.36,0,3.37s.07,2.08.12,3.21a3.14,3.14,0,0,0,.81,2.33,7,7,0,0,0,1.59,1l-.08.31a10.25,10.25,0,0,0-1.28-.16Q552.54,500.16,551.56,500.11Z"/><path class="cls-1" d="M539.28,528.6a5.29,5.29,0,0,0-1.81-.6,12.54,12.54,0,0,0-2-.16v-1h.87a14.33,14.33,0,0,1,3.65.4,7.88,7.88,0,0,1,2.51,1.1,4.48,4.48,0,0,1,1.46,1.63,4.36,4.36,0,0,1,.46,2,4.79,4.79,0,0,1-.49,2.23,5.36,5.36,0,0,1-1.33,1.66,7.39,7.39,0,0,1-2,1.15,11.11,11.11,0,0,1-2.38.66,4.4,4.4,0,0,1,1.73,1.23,17.33,17.33,0,0,1,1.54,2c.48.73,1,1.48,1.39,2.25a22.46,22.46,0,0,0,1.32,2.06,7.21,7.21,0,0,0,1.28,1.41,1.33,1.33,0,0,0,1.29.3l0,.18a2.4,2.4,0,0,1-1.11.4,8.07,8.07,0,0,1-1.21.1,4.17,4.17,0,0,1-2.45-.68,6.08,6.08,0,0,1-1.6-1.71,11.79,11.79,0,0,1-1.07-2.23c-.28-.81-.57-1.57-.86-2.29a10.28,10.28,0,0,0-1-1.88,2.08,2.08,0,0,0-1.34-.94H536v-1.15a7.7,7.7,0,0,0,1.35-.12,5.09,5.09,0,0,0,1.85-.73,4.1,4.1,0,0,0,1.33-1.49,5,5,0,0,0,.51-2.37,3.89,3.89,0,0,0-.5-2.09A3.51,3.51,0,0,0,539.28,528.6Z"/><path class="cls-1" d="M535.77,546.84a2.93,2.93,0,0,0,.63.4l0,.12-.51-.06-.75,0H532.5l-.78,0-.52.06,0-.12a3.83,3.83,0,0,0,.62-.4,1.22,1.22,0,0,0,.34-.93c0-.5,0-1,0-1.55s0-1.15,0-1.82V531.59c0-.68,0-1.28,0-1.81s0-1,0-1.53a1.26,1.26,0,0,0-.31-.93,1,1,0,0,0-.61-.28l0-.13c.13,0,.44,0,.93,0l1.63,0,1.64,0h.08v1c0,.93-.06,2.11-.06,3.55v5.22l.66,0v1.15h-.66v5.48c0,.5,0,1,0,1.35s0,.83.05,1.29A1.26,1.26,0,0,0,535.77,546.84Z"/><path class="cls-1" d="M503.81,546.84a1.26,1.26,0,0,0,.34-.93c0-.5,0-1,0-1.55s0-1.15,0-1.83V531.59c0-.68,0-1.28,0-1.81s0-1,0-1.53a1.22,1.22,0,0,0-.34-.93,4.14,4.14,0,0,0-.62-.41l0-.15.51.06.74,0,.75,0h10.89a2.32,2.32,0,0,0,.12.59q.12.4.3.87l.32.88c.1.28.19.49.25.64l-.16.18a7.87,7.87,0,0,0-2-1.31,10.73,10.73,0,0,0-2.27-.72,15.2,15.2,0,0,0-2.49-.26q-1.31,0-2.73.06c0,.77,0,1.44,0,2s0,1.17,0,1.78v4.66c1.53,0,2.75-.06,3.67-.11a12.24,12.24,0,0,0,2.12-.26,2.09,2.09,0,0,0,1-.5,1.82,1.82,0,0,0,.4-.77l.16.06c0,.37-.08.7-.1,1s0,.64,0,1,0,.78,0,1.07.05.63.1,1l-.16.06a2,2,0,0,0-.4-.82,1.87,1.87,0,0,0-1-.49,11.64,11.64,0,0,0-2.12-.24c-.92,0-2.14-.06-3.67-.06v5.55c0,.7,0,1.33,0,1.89s0,1.08,0,1.58c1.06,0,2.09,0,3.12,0a27.15,27.15,0,0,0,2.94-.28,15.57,15.57,0,0,0,2.63-.64,7.84,7.84,0,0,0,2.16-1.1l.15.13-.26.54-.44.9c-.15.32-.29.62-.41.9a1.69,1.69,0,0,0-.19.54H504.47l-.74,0-.51.06,0-.12A5,5,0,0,0,503.81,546.84Z"/><path class="cls-1" d="M501.84,497.6a65.63,65.63,0,0,0,7.36-.7,37.93,37.93,0,0,0,6.58-1.59,19.61,19.61,0,0,0,5.38-2.75l.39.31-.66,1.36c-.33.69-.7,1.44-1.08,2.24s-.74,1.55-1,2.25a4.62,4.62,0,0,0-.46,1.36H496.56V497.7C498.34,497.7,500.1,497.67,501.84,497.6Z"/><path class="cls-1" d="M507.1,452.09a36.59,36.59,0,0,0-6.23-.66l-1.63,0v-2.15h16.42a6.13,6.13,0,0,0,.31,1.48c.21.67.45,1.39.74,2.16s.55,1.51.81,2.21.47,1.23.62,1.59l-.38.46a19.39,19.39,0,0,0-5-3.29A25.92,25.92,0,0,0,507.1,452.09Z"/><path class="cls-1" d="M493.38,544.39c0-.52,0-1.11,0-1.77V531.34c0-.62,0-1.17,0-1.65s0-1-.05-1.44a1.27,1.27,0,0,0-.34-1,3,3,0,0,0-.62-.42l0-.12a2.06,2.06,0,0,0,.54.08l.74,0,.76,0h1.1l.76,0,.76,0,.51-.06,0,.12a2.39,2.39,0,0,0-.63.42,1.31,1.31,0,0,0-.33,1c0,.49,0,1,0,1.53s0,1.13,0,1.81v10.94c0,.68,0,1.29,0,1.83s0,1,0,1.55a1.26,1.26,0,0,0,.33.93,2.93,2.93,0,0,0,.63.4l0,.12c-.1,0-.27,0-.51-.05l-.76,0-.76,0h-1.86l-.74,0-.54.06,0-.12a3.83,3.83,0,0,0,.62-.4,1.22,1.22,0,0,0,.34-.93C493.36,545.41,493.37,544.9,493.38,544.39Z"/><path class="cls-1" d="M512.1,471.26c-.05.73-.08,1.6-.08,2.64s0,1.92.08,2.67.13,1.56.23,2.44l-.38.15a5.06,5.06,0,0,0-1-2.05,4.81,4.81,0,0,0-2.56-1.24,31.71,31.71,0,0,0-5.3-.58q-3.45-.15-9.18-.15V489c0,1.76,0,3.33,0,4.72s.06,2.72.11,4c.84,0,1.68,0,2.51,0v2.38h-8.12l-1.86,0q-1,0-1.86.12a10.25,10.25,0,0,0-1.28.16l-.08-.31a8.72,8.72,0,0,0,1.55-1,3,3,0,0,0,.85-2.33c.06-1.23.09-2.52.12-3.87s0-2.86,0-4.57V461c0-1.7,0-3.22,0-4.53s-.06-2.6-.12-3.84a3,3,0,0,0-.85-2.32,8.72,8.72,0,0,0-1.55-1l.08-.38c.26.05.68.1,1.28.15s1.21.09,1.86.12l1.86.08,1.35,0h9.45v2.15q-2.5,0-5.19.18c-.05,1.91-.09,3.59-.11,5s0,2.93,0,4.46v11.65q5.73-.08,9.18-.27a30.26,30.26,0,0,0,5.3-.66,5.2,5.2,0,0,0,2.56-1.23,4.79,4.79,0,0,0,1-1.94l.38.15C512.23,469.71,512.15,470.54,512.1,471.26Z"/><path class="cls-1" d="M480.82,526.87l.76,0,.51-.06,0,.12a2.62,2.62,0,0,0-.64.42,1.35,1.35,0,0,0-.32,1c0,.47,0,1-.05,1.44s0,1,0,1.65v4.84h12.3v1.17H481.1v5.27c0,.66,0,1.25,0,1.77s0,1,.05,1.52a1.3,1.3,0,0,0,.32.93,3.27,3.27,0,0,0,.64.4l0,.12-.51-.05-.76,0-.76,0H478.2l-.74,0-.55.06,0-.12a3.83,3.83,0,0,0,.62-.4,1.22,1.22,0,0,0,.34-.93c0-.5,0-1,.05-1.55s0-1.15,0-1.83V531.59c0-.68,0-1.28,0-1.81s0-1-.05-1.53a1.27,1.27,0,0,0-.34-1,3,3,0,0,0-.62-.42l0-.12a2.23,2.23,0,0,0,.55.08l.74,0,.76,0h1.1Z"/><path class="cls-1" d="M455.57,526.91h16.32a2.91,2.91,0,0,0,.14.51c.1.28.19.59.3.92s.21.64.31.93.17.49.22.62l-.16.15a9.62,9.62,0,0,0-3.55-1.64,16.56,16.56,0,0,0-3.82-.47v14.61c0,.67,0,1.28,0,1.82s0,1,.05,1.55a1.22,1.22,0,0,0,.34.93,4.32,4.32,0,0,0,.62.4l0,.12-.51-.06-.76,0h-2.64l-.75,0-.52.06,0-.12a3.27,3.27,0,0,0,.64-.4,1.3,1.3,0,0,0,.32-.93c0-.5,0-1,.05-1.55s0-1.15,0-1.82V527.93a15.88,15.88,0,0,0-3.85.49,9.77,9.77,0,0,0-3.56,1.65l-.15-.15.21-.64c.11-.3.21-.61.33-.94s.21-.64.31-.92A2.91,2.91,0,0,0,455.57,526.91Z"/><path class="cls-1" d="M456.87,449.15c.67,0,1.31-.07,1.9-.12s1-.1,1.28-.15l.08.31a6.22,6.22,0,0,0-1.59,1,3.29,3.29,0,0,0-.81,2.36c-.06,1.24-.09,2.52-.12,3.84s0,2.83,0,4.53V488.3c0,1.71,0,3.23,0,4.57s.06,2.64.12,3.87a3.14,3.14,0,0,0,.81,2.33,7,7,0,0,0,1.59,1l-.08.31a8.61,8.61,0,0,0-1.28-.12l-1.9-.08-1.89-.08-1.36,0h-1.39l-1.9,0q-1,0-1.86.12c-.59,0-1.05.1-1.36.16l-.07-.31a9.5,9.5,0,0,0,1.55-1,3.06,3.06,0,0,0,.85-2.33c.05-1.23.09-2.5.11-3.79s0-2.76,0-4.41v-28.2c0-1.55,0-2.93,0-4.14s-.06-2.42-.11-3.61a3.21,3.21,0,0,0-.85-2.36,8.08,8.08,0,0,0-1.55-1l.07-.31a5.71,5.71,0,0,0,1.36.19l1.86.12c.64.05,1.28.07,1.9.07h1.39l1.36,0Z"/><path class="cls-1" d="M441.8,528.37l.32.88c.1.28.19.49.25.64l-.16.18a7.75,7.75,0,0,0-2-1.31A10.46,10.46,0,0,0,438,528a15.2,15.2,0,0,0-2.49-.26q-1.31,0-2.73.06c0,.77,0,1.44,0,2s0,1.17,0,1.78v4.66c1.53,0,2.75-.06,3.67-.11a12.24,12.24,0,0,0,2.12-.26,2.09,2.09,0,0,0,1-.5,1.82,1.82,0,0,0,.4-.77l.15.06q-.06.56-.09,1t0,1c0,.42,0,.78,0,1.07s.05.63.09,1l-.15.06a2,2,0,0,0-.4-.82,1.87,1.87,0,0,0-1-.49,11.64,11.64,0,0,0-2.12-.24c-.92,0-2.14-.06-3.67-.06v5.55c0,.7,0,1.33,0,1.89s0,1.08,0,1.58c1.06,0,2.09,0,3.12,0a27.15,27.15,0,0,0,2.94-.28,15.57,15.57,0,0,0,2.63-.64,7.84,7.84,0,0,0,2.16-1.1l.15.13-.26.54-.44.9c-.15.32-.29.62-.41.9a1.69,1.69,0,0,0-.19.54H429.74l-.74,0-.51.06,0-.12a5,5,0,0,0,.62-.4,1.26,1.26,0,0,0,.34-.93c0-.5,0-1,0-1.55s0-1.15,0-1.83V531.59c0-.68,0-1.28,0-1.81s0-1,0-1.53a1.22,1.22,0,0,0-.34-.93,4.14,4.14,0,0,0-.62-.41l0-.15.51.06.74,0,.75,0h10.89a2.32,2.32,0,0,0,.12.59Q441.62,527.91,441.8,528.37Z"/><path class="cls-1" d="M418.15,449.15q1,0,1.89-.12c.6,0,1-.1,1.28-.15l.08.31a6.22,6.22,0,0,0-1.59,1,3.29,3.29,0,0,0-.81,2.36c-.05,1.19-.09,2.39-.12,3.61s0,2.59,0,4.14v12.08h30.75v2.95H418.84v13.17c0,1.65,0,3.12,0,4.41s.07,2.56.12,3.79a3.14,3.14,0,0,0,.81,2.33,7,7,0,0,0,1.59,1l-.08.31a8.61,8.61,0,0,0-1.28-.12l-1.89-.08-1.9-.08-1.36,0H413.5l-1.9,0q-1,0-1.86.12c-.59,0-1,.1-1.35.16l-.08-.31a9.5,9.5,0,0,0,1.55-1,3.06,3.06,0,0,0,.85-2.33q.07-1.85.12-3.87c0-1.34,0-2.86,0-4.57V461c0-1.7,0-3.22,0-4.53s-.07-2.6-.12-3.84a3.21,3.21,0,0,0-.85-2.36,8.08,8.08,0,0,0-1.55-1l.08-.31a5.62,5.62,0,0,0,1.35.19l1.86.12c.65.05,1.28.07,1.9.07h1.39l1.36,0Z"/><path class="cls-1" d="M425.1,527.44a3.15,3.15,0,0,0-.79,1l-.75,1.47c-.25.49-.52,1-.82,1.66l-1.05,2.16c-.41.81-.88,1.81-1.44,3l-1.6,3.4c-.5,1.08-1,2.09-1.39,3s-.8,1.79-1.13,2.53-.6,1.36-.81,1.86h-.43q-.31-.75-.81-1.86L413,543.19q-.63-1.41-1.41-3l-1.61-3.4-1.41-3c-.38-.8-.72-1.49-1-2.08s-.55-1.11-.79-1.56-.48-.93-.73-1.43a4.24,4.24,0,0,0-.85-1.18,2.74,2.74,0,0,0-1-.65l0-.15.59.06.79,0,.79,0h1.3l1,0,.93,0,.62-.06,0,.15-.36.16a.94.94,0,0,0-.34.25.88.88,0,0,0-.2.37.87.87,0,0,0,.09.56c.21.49.43,1,.67,1.5s.51,1.08.8,1.72l1,2.24c.39.86.86,1.88,1.4,3s.92,2.06,1.21,2.7.52,1.16.69,1.57.33.76.47,1.06.32.73.57,1.24c.25-.51.45-1,.62-1.36s.35-.81.54-1.25l.7-1.6c.27-.62.63-1.42,1.08-2.42.54-1.17,1-2.19,1.35-3s.67-1.59.92-2.22.47-1.2.66-1.7.4-1,.61-1.5a1.08,1.08,0,0,0,.07-.56.71.71,0,0,0-.2-.37,1.07,1.07,0,0,0-.35-.25l-.36-.16,0-.15c.25,0,.58.08,1,.11s.78,0,1.09,0,.64,0,1,0,.67-.07,1-.11l0,.15A3.08,3.08,0,0,0,425.1,527.44Z"/><path class="cls-1" d="M393,528.17a6.92,6.92,0,0,0-3-.67l0-1.24a12.4,12.4,0,0,1,4.3.76,10.68,10.68,0,0,1,6.09,5.61,11.09,11.09,0,0,1,0,8.89,10.67,10.67,0,0,1-2.48,3.41,11,11,0,0,1-3.61,2.18,12,12,0,0,1-3.91.77l0-1.27A7,7,0,0,0,393,546a7.53,7.53,0,0,0,2.51-1.89,8.83,8.83,0,0,0,1.72-3,11.6,11.6,0,0,0,.64-4,11.77,11.77,0,0,0-.64-4,8.87,8.87,0,0,0-1.72-3A7.53,7.53,0,0,0,393,528.17Z"/><path class="cls-1" d="M384.52,544.06A7.63,7.63,0,0,0,387,546a6.93,6.93,0,0,0,3,.67h.39l0,1.27H390a12.07,12.07,0,0,1-4.32-.78,10.9,10.9,0,0,1-3.61-2.18,10.52,10.52,0,0,1-2.48-3.41,11.09,11.09,0,0,1,0-8.89,10.68,10.68,0,0,1,6.09-5.61,12.51,12.51,0,0,1,4.32-.76h0l0,1.24a6.93,6.93,0,0,0-3,.67,7.63,7.63,0,0,0-2.51,1.89,9.22,9.22,0,0,0-1.72,3,12,12,0,0,0-.63,4,11.85,11.85,0,0,0,.63,4A9.17,9.17,0,0,0,384.52,544.06Z"/><path class="cls-1" d="M361.45,498.53a29.07,29.07,0,0,0,13.05-2.73l1.19,2.2c-.45.27-.92.52-1.39.76a28,28,0,0,1-12.85,2.94,33.6,33.6,0,0,1-11.39-1.93,30,30,0,0,1-9.53-5.46,25.92,25.92,0,0,1-6.5-8.52,27,27,0,0,1,0-22.24,26.25,26.25,0,0,1,6.5-8.55,28.89,28.89,0,0,1,9.53-5.46,34.08,34.08,0,0,1,11.39-1.9,35.7,35.7,0,0,1,5.73.46,30.26,30.26,0,0,1,5.54,1.44,26.41,26.41,0,0,1,5,2.4,20.55,20.55,0,0,1,4.11,3.29l.31,8.21-.47.15a22.71,22.71,0,0,0-7.7-9.37,21.39,21.39,0,0,0-12.51-3.48,18.93,18.93,0,0,0-8,1.74,20.09,20.09,0,0,0-6.62,4.88,24.12,24.12,0,0,0-4.54,7.55,28.88,28.88,0,0,0,0,19.44,23.36,23.36,0,0,0,4.49,7.55,20,20,0,0,0,6.62,4.88A19,19,0,0,0,361.45,498.53Z"/><path class="cls-1" d="M384.61,479.24a2,2,0,0,0-.78,1.7v9.53a25.35,25.35,0,0,1-8.14,7.53l-1.19-2.2.73-.37V480.94a2,2,0,0,0-.81-1.7,10.21,10.21,0,0,0-1.59-1l.08-.38c.26,0,.72.1,1.39.15s1.39.09,2.14.12,1.45,0,2.13,0h2.74c.55,0,1.13,0,1.75,0s1.21-.07,1.78-.12,1-.1,1.32-.15l.07.38A7.67,7.67,0,0,0,384.61,479.24Z"/><path class="cls-1" d="M369,528.11a3.88,3.88,0,0,1,2.24,3.48,3.81,3.81,0,0,1-.59,2.19,4.93,4.93,0,0,1-1.42,1.42,6.09,6.09,0,0,1-1.77.79,7.33,7.33,0,0,1-1.28.25l-.08-.91a2.71,2.71,0,0,0,.37-.21,3.23,3.23,0,0,0,1.13-1.31,5,5,0,0,0,.42-2.22,3.93,3.93,0,0,0-.46-2.06,3,3,0,0,0-1.2-1.13,4.64,4.64,0,0,0-1.61-.47l-.87-.07.06-1A11.38,11.38,0,0,1,369,528.11Z"/><path class="cls-1" d="M368.46,545.44A4.23,4.23,0,0,0,370,544a4.18,4.18,0,0,0,.57-2.25,5.86,5.86,0,0,0-.4-2.27,3.38,3.38,0,0,0-1.32-1.58,5.8,5.8,0,0,0-2.37-.83l-.67-.07,0-.7a15.32,15.32,0,0,1,3,.28,7.79,7.79,0,0,1,2.56.93,5.07,5.07,0,0,1,1.78,1.69,4.65,4.65,0,0,1,.67,2.55,3.92,3.92,0,0,1-.93,2.64,7.14,7.14,0,0,1-2.33,1.76,11.36,11.36,0,0,1-3.05,1,18.53,18.53,0,0,1-3.14.29h-.35v-1.08a13.67,13.67,0,0,0,2-.13A6.71,6.71,0,0,0,368.46,545.44Z"/><path class="cls-1" d="M364.86,535.74a4.24,4.24,0,0,0,1.26-.41l.08.91-.3,0,0,.7A16.63,16.63,0,0,0,363,537V543c0,.66,0,1.26,0,1.78s0,1,0,1.54l1.05,0v1.08H363l-1.66,0-1.53-.05a8.32,8.32,0,0,1-1.07-.07v-.13a1.45,1.45,0,0,0,.63-.29,1.19,1.19,0,0,0,.33-.91c0-.5,0-1,0-1.55s0-1.15,0-1.83V531.59c0-.68,0-1.28,0-1.81s0-1,0-1.53a1.22,1.22,0,0,0-.33-.93,1.09,1.09,0,0,0-.63-.28v-.13a6.23,6.23,0,0,1,.72,0l1.23,0,1.22,0h.76c.43,0,.85,0,1.25,0l-.06,1-.85,0c0,.48,0,1,0,1.47s0,1.08,0,1.72v4.84A8.87,8.87,0,0,0,364.86,535.74Z"/><path class="cls-1" d="M344.22,530.82c-.25.51-.46,1-.62,1.34l-.55,1.26c-.19.45-.43,1-.69,1.61s-.63,1.41-1.09,2.39L340.13,540h8.21l-1.18-2.61c-.54-1.15-1-2.05-1.23-2.68s-.5-1.14-.68-1.54-.33-.76-.46-1.07S344.46,531.33,344.22,530.82Zm10.25,14.59a4.3,4.3,0,0,0,.87,1.18,3,3,0,0,0,1,.65l0,.12-.59-.06-.79,0h-3l-.95,0-.63.06,0-.12.35-.16a1.13,1.13,0,0,0,.36-.24.78.78,0,0,0,.2-.38,1,1,0,0,0-.08-.55c-.29-.71-.6-1.42-.94-2.14s-.78-1.64-1.32-2.76h-9.14q-.35.84-.6,1.5l-.5,1.26-.43,1.1c-.14.34-.28.68-.42,1a.78.78,0,0,0-.09.55.89.89,0,0,0,.21.38,1.23,1.23,0,0,0,.38.24l.37.16,0,.12c-.27,0-.61-.07-1-.09l-1.08,0-1,0c-.36,0-.68.05-1,.09l0-.12a3,3,0,0,0,1.67-1.58l.74-1.47.84-1.66c.31-.62.66-1.34,1.05-2.17l1.43-3,1.61-3.39c.52-1.08,1-2.09,1.41-3l1.13-2.51q.5-1.11.81-1.86h.43c.21.5.47,1.12.8,1.86s.71,1.58,1.14,2.51.88,1.94,1.39,3,1,2.22,1.6,3.39,1,2.17,1.42,3,.73,1.49,1,2.08.53,1.11.77,1.58S354.22,544.91,354.47,545.41Z"/><path class="cls-1" d="M316.33,537.15a6.2,6.2,0,0,0,3.63-1,4.46,4.46,0,0,0,1.67-3.91,4.22,4.22,0,0,0-.54-2.26,3.78,3.78,0,0,0-1.43-1.35,6.23,6.23,0,0,0-2-.65,15.18,15.18,0,0,0-2.25-.17v-1h.87a15,15,0,0,1,3.93.45,9,9,0,0,1,2.72,1.19,4.89,4.89,0,0,1,1.58,1.74,4.46,4.46,0,0,1,.51,2.07,5.55,5.55,0,0,1-.68,2.82,5.24,5.24,0,0,1-2,1.92,9,9,0,0,1-3,1.07,16.06,16.06,0,0,1-3,.25Z"/><path class="cls-1" d="M315.85,547.3l-.76,0h-2.65l-.74,0-.51.06,0-.12a5,5,0,0,0,.62-.4,1.26,1.26,0,0,0,.34-.93c0-.5,0-1,0-1.55s0-1.15,0-1.83V531.59c0-.68,0-1.28,0-1.81s0-1,0-1.53a1.31,1.31,0,0,0-.31-.93,1.06,1.06,0,0,0-.62-.28l0-.13c.12,0,.44,0,.94,0l1.63,0,1.62,0h.08v1c0,.93-.06,2.2-.06,3.8v5.47c.33,0,.65,0,1,0l0,1.18c-.3,0-.62,0-.94,0v4.85c0,.53,0,1,0,1.4s0,.85,0,1.35a1.26,1.26,0,0,0,.34.93,5,5,0,0,0,.62.4l0,.12Z"/><path class="cls-1" d="M304.36,449.15c.67,0,1.3-.07,1.9-.12s1-.1,1.28-.15l.07.31a6.35,6.35,0,0,0-1.58,1,3.29,3.29,0,0,0-.82,2.36c0,1.24-.09,2.52-.11,3.84s0,2.83,0,4.53V488.3c0,1.71,0,3.23,0,4.57s.06,2.64.11,3.87a3.14,3.14,0,0,0,.82,2.33,7.17,7.17,0,0,0,1.58,1l-.07.31a8.76,8.76,0,0,0-1.28-.12l-1.9-.08-1.9-.08-1.35,0h-1.4l-1.89,0q-1,0-1.86.12c-.6,0-1,.1-1.36.16l-.08-.31a8.72,8.72,0,0,0,1.55-1,3.06,3.06,0,0,0,.86-2.33c.05-1.23.08-2.52.11-3.87s0-2.86,0-4.57V461c0-1.7,0-3.22,0-4.53s-.06-2.6-.11-3.84a3.21,3.21,0,0,0-.86-2.36,7.51,7.51,0,0,0-1.55-1l.08-.31a5.63,5.63,0,0,0,1.36.19l1.86.12c.64.05,1.27.07,1.89.07h1.4l1.35,0Z"/><path class="cls-1" d="M305.19,528.37c.12.31.22.6.33.88s.18.49.24.64l-.15.18a7.93,7.93,0,0,0-2-1.31,10.64,10.64,0,0,0-2.26-.72,15.44,15.44,0,0,0-2.49-.26q-1.31,0-2.73.06c0,.77,0,1.44-.05,2s0,1.17,0,1.78v4.66c1.53,0,2.75-.06,3.67-.11a12.24,12.24,0,0,0,2.12-.26,2,2,0,0,0,1-.5,1.84,1.84,0,0,0,.41-.77l.15.06q-.06.56-.09,1t0,1c0,.42,0,.78,0,1.07s0,.63.09,1l-.15.06a2,2,0,0,0-.41-.82,1.8,1.8,0,0,0-1-.49,11.64,11.64,0,0,0-2.12-.24c-.92,0-2.14-.06-3.67-.06v5.55c0,.7,0,1.33,0,1.89s0,1.08.05,1.58c1.05,0,2.09,0,3.11,0a27.1,27.1,0,0,0,2.95-.28,15.81,15.81,0,0,0,2.63-.64,7.78,7.78,0,0,0,2.15-1.1l.16.13-.27.54c-.13.28-.27.58-.43.9l-.42.9a1.85,1.85,0,0,0-.18.54H293.14l-.74,0-.52.06,0-.12a3.83,3.83,0,0,0,.62-.4,1.22,1.22,0,0,0,.34-.93c0-.5,0-1,.05-1.55s0-1.15,0-1.83V531.59c0-.68,0-1.28,0-1.81s0-1-.05-1.53a1.19,1.19,0,0,0-.34-.93,3.32,3.32,0,0,0-.62-.41l0-.15.52.06.74,0,.74,0h10.89a2,2,0,0,0,.13.59C305,527.77,305.08,528.06,305.19,528.37Z"/><path class="cls-1" d="M287.61,529.27c.1.29.17.49.22.62l-.16.15a9.54,9.54,0,0,0-3.55-1.64,16.56,16.56,0,0,0-3.82-.47v14.61c0,.67,0,1.28,0,1.82s0,1,.05,1.55a1.22,1.22,0,0,0,.34.93,4.32,4.32,0,0,0,.62.4l0,.12-.51-.06-.76,0h-2.63l-.76,0-.52.06,0-.12a3.27,3.27,0,0,0,.64-.4,1.3,1.3,0,0,0,.32-.93c0-.5,0-1,0-1.55s0-1.15,0-1.82V527.93a15.94,15.94,0,0,0-3.85.49,9.77,9.77,0,0,0-3.56,1.65l-.15-.15.21-.64c.11-.3.21-.61.33-.94s.22-.64.31-.92a2.91,2.91,0,0,0,.14-.51h16.33a2.17,2.17,0,0,0,.14.51c.09.28.19.59.29.92S287.51,529,287.61,529.27Z"/><path class="cls-1" d="M269.7,499.07a7,7,0,0,0,1.59,1l-.08.31a8.61,8.61,0,0,0-1.28-.12l-1.89-.08-1.9-.08-1.36,0h-1.39l-1.9,0q-1,0-1.86.12c-.59,0-1.05.1-1.35.16l-.08-.31a9.5,9.5,0,0,0,1.55-1,3.06,3.06,0,0,0,.85-2.33c0-1.23.09-2.5.11-3.79s0-2.76,0-4.41v-28.2c0-1.55,0-2.93,0-4.14s-.06-2.42-.11-3.61a3.21,3.21,0,0,0-.85-2.36,8.08,8.08,0,0,0-1.55-1l.08-.31a5.54,5.54,0,0,0,1.35.19l1.86.12c.64.05,1.28.07,1.9.07h1.39l1.36,0,1.9-.08q1,0,1.89-.12c.6,0,1-.1,1.28-.15l.08.31a6.22,6.22,0,0,0-1.59,1,3.29,3.29,0,0,0-.81,2.36c-.06,1.24-.09,2.52-.12,3.84s0,2.83,0,4.53V488.3c0,1.71,0,3.23,0,4.57s.06,2.64.12,3.87A3.14,3.14,0,0,0,269.7,499.07Z"/><path class="cls-1" d="M264.93,544.43a5.6,5.6,0,0,1-1.61,1.91A7.13,7.13,0,0,1,261,547.5a9.91,9.91,0,0,1-2.82.39,11.26,11.26,0,0,1-1.71-.14,12,12,0,0,1-1.72-.39,8.7,8.7,0,0,1-1.57-.62,5.43,5.43,0,0,1-1.22-.83l-.53-3.85.25-.09a9.25,9.25,0,0,0,1.41,2.2,8.16,8.16,0,0,0,1.64,1.46,6.74,6.74,0,0,0,1.77.82,6.51,6.51,0,0,0,1.75.26,4.85,4.85,0,0,0,3.23-1.05,3.78,3.78,0,0,0,1.26-3.07,3.1,3.1,0,0,0-.81-2.2,7.84,7.84,0,0,0-2-1.53,23.05,23.05,0,0,0-2.59-1.24,17,17,0,0,1-2.59-1.32,7.78,7.78,0,0,1-2-1.77,4.09,4.09,0,0,1-.8-2.6,5.57,5.57,0,0,1,.52-2.49,5.06,5.06,0,0,1,1.43-1.77,6.42,6.42,0,0,1,2.11-1,8.92,8.92,0,0,1,2.57-.36,11.25,11.25,0,0,1,3.19.42A5.48,5.48,0,0,1,264,527.9l.31,3.35-.15.12a6.8,6.8,0,0,0-1.12-1.81,6,6,0,0,0-1.41-1.18,6.06,6.06,0,0,0-1.59-.65,7.29,7.29,0,0,0-1.65-.2,3.93,3.93,0,0,0-2.79.93,3,3,0,0,0-1,2.23,2.71,2.71,0,0,0,.81,2,7.58,7.58,0,0,0,2,1.38c.81.39,1.69.78,2.64,1.16a14.33,14.33,0,0,1,2.63,1.4,7.07,7.07,0,0,1,2,2,5.51,5.51,0,0,1,.81,3.13A5.58,5.58,0,0,1,264.93,544.43Z"/><path class="cls-1" d="M229.31,449.15q1,0,1.89-.12c.6,0,1-.1,1.28-.15l.08.31a6.22,6.22,0,0,0-1.59,1,3.29,3.29,0,0,0-.81,2.36c0,1.19-.09,2.39-.12,3.61s0,2.59,0,4.14v12.08h30.75v2.95H230v13.17c0,1.65,0,3.12,0,4.41s.07,2.56.12,3.79a3.14,3.14,0,0,0,.81,2.33,7,7,0,0,0,1.59,1l-.08.31a8.61,8.61,0,0,0-1.28-.12l-1.89-.08-1.9-.08-1.36,0h-1.39l-1.9,0q-1,0-1.86.12c-.59,0-1,.1-1.35.16l-.08-.31a9.5,9.5,0,0,0,1.55-1,3.06,3.06,0,0,0,.85-2.33q.07-1.85.12-3.87c0-1.34,0-2.86,0-4.57V461c0-1.7,0-3.22,0-4.53s-.07-2.6-.12-3.84a3.21,3.21,0,0,0-.85-2.36,8.08,8.08,0,0,0-1.55-1l.08-.31a5.62,5.62,0,0,0,1.35.19l1.86.12c.65.05,1.28.07,1.9.07h1.39l1.36,0Z"/><path class="cls-1" d="M232.58,540l-1.17-2.61c-.54-1.15-.95-2.05-1.23-2.68l-.68-1.54c-.17-.41-.33-.76-.46-1.07s-.33-.73-.58-1.24c-.24.51-.45,1-.62,1.34s-.34.81-.54,1.26-.43,1-.69,1.61-.64,1.41-1.09,2.39L224.37,540Zm7,6.63a3,3,0,0,0,1,.65l0,.12-.59-.06-.79,0h-3l-1,0-.63.06,0-.12.35-.16a1.26,1.26,0,0,0,.36-.24.78.78,0,0,0,.2-.38,1.06,1.06,0,0,0-.08-.55c-.29-.71-.6-1.42-.94-2.14s-.78-1.64-1.32-2.76h-9.14q-.34.84-.6,1.5c-.18.45-.35.86-.5,1.26l-.43,1.1c-.14.34-.28.68-.42,1a.73.73,0,0,0-.09.55.89.89,0,0,0,.21.38,1.31,1.31,0,0,0,.37.24l.38.16,0,.12a10.15,10.15,0,0,0-1-.09l-1.08,0-1,0c-.36,0-.68.05-1,.09l0-.12a3,3,0,0,0,1.67-1.58c.25-.5.49-1,.74-1.47l.84-1.66c.31-.62.66-1.34,1-2.17l1.43-3c.55-1.17,1.09-2.3,1.61-3.39s1-2.09,1.41-3l1.13-2.51c.33-.74.6-1.36.8-1.86h.44c.2.5.47,1.12.8,1.86l1.13,2.51c.43.93.89,1.94,1.4,3s1,2.22,1.59,3.39,1,2.17,1.43,3,.73,1.49,1,2.08.53,1.11.77,1.58.48.94.73,1.44A4.3,4.3,0,0,0,239.59,546.59Z"/><circle class="cls-1" cx="196.61" cy="476.55" r="6.3"/><path class="cls-1" d="M202.47,495.51a5.86,5.86,0,1,0-5.86,5.85A5.87,5.87,0,0,0,202.47,495.51Zm-5.86-6.3a6.3,6.3,0,1,1-6.3,6.3A6.3,6.3,0,0,1,196.61,489.21Z"/><path class="cls-1" d="M202.32,457.52a5.86,5.86,0,1,0-5.86,5.85A5.87,5.87,0,0,0,202.32,457.52Zm-5.86-6.3a6.3,6.3,0,1,1-6.29,6.3A6.3,6.3,0,0,1,196.46,451.22Z"/><path class="cls-1" d="M176.56,470.48a6.08,6.08,0,1,1-6.07,6.07A6.08,6.08,0,0,1,176.56,470.48Z"/><path class="cls-1" d="M176.42,451.44a6.08,6.08,0,1,1-6.08,6.08A6.08,6.08,0,0,1,176.42,451.44Z"/><path class="cls-1" d="M176.56,489.65a5.86,5.86,0,1,0,5.86,5.86A5.87,5.87,0,0,0,176.56,489.65Zm6.3,5.86a6.3,6.3,0,1,1-6.3-6.3A6.31,6.31,0,0,1,182.86,495.51Z"/></svg>