<svg xmlns="http://www.w3.org/2000/svg" viewBox="0 0 535.62 301.8"><defs><style>.cls-1{fill:#d2ab60;}</style></defs><g id="Layer_2" data-name="Layer 2"><g id="Layer_1-2" data-name="Layer 1"><path class="cls-1" d="M518.4,279l3.06-4.2,2.25-3.09q.93-1.29,1.77-2.49t1.68-2.49q.84-1.29,2-3.09a1.79,1.79,0,0,0,.33-1,1.14,1.14,0,0,0-.3-.69,1.94,1.94,0,0,0-.69-.48l-.72-.3.06-.3q.78.12,2.16.21t2.28.09a13.91,13.91,0,0,0,1.65-.09l1.59-.21.06.3a5.57,5.57,0,0,0-1.86,1.14,13.3,13.3,0,0,0-1.86,2l-1.77,2.31-1.59,2.1q-.84,1.11-1.92,2.58l-2.76,3.75-2.28,3q-1.32,1.74-2.52,3.42V292q0,1.83,0,3.18t.09,2.79a2.6,2.6,0,0,0,.69,1.8,6,6,0,0,0,1.17.78l-.06.24q-.3-.06-1-.12t-1.47-.09l-1.47,0h-2.13l-1.47,0q-.75,0-1.44.09t-1,.12l-.06-.24a6,6,0,0,0,1.17-.78,2.6,2.6,0,0,0,.69-1.8q.06-1.38.09-2.73t0-3.12q0-1.77,0-4.2t0-6q-1.08-1.56-2.4-3.42T508,275.1q-1.62-2.22-2.76-3.81l-2-2.76-1.47-2.07q-.63-.9-1.29-1.74-.9-1.2-1.83-2.22a4.52,4.52,0,0,0-1.83-1.32l.06-.3q.42.06,1.17.12t1.56.09l1.56.06,1.23,0,1.41,0,2.07-.06q1.08,0,2-.09t1.32-.12l.12.3-.75.27a3.38,3.38,0,0,0-.81.39,1,1,0,0,0-.45.6,1.36,1.36,0,0,0,.27,1q.84,1.38,1.59,2.55t1.62,2.46q.87,1.29,2,2.88t2.76,3.81q1.2,1.56,1.77,2.4T518.4,279Z"/><path class="cls-1" d="M484.8,261.12a4.85,4.85,0,0,0-1.23.81,2.55,2.55,0,0,0-.63,1.83q-.06,1.44-.09,3t0,3.51v21.18q0,2,0,3.54t.09,3a2.43,2.43,0,0,0,.63,1.8,5.32,5.32,0,0,0,1.23.78l-.06.24a7.3,7.3,0,0,0-1-.09l-1.47-.06-1.47-.06-1.05,0h-1.08l-1.47,0q-.75,0-1.44.09t-1,.12l-.06-.24a6.8,6.8,0,0,0,1.2-.78,2.36,2.36,0,0,0,.66-1.8q.06-1.44.09-2.94t0-3.42V269.76q0-1.8,0-3.21t-.09-2.79a2.47,2.47,0,0,0-.66-1.83,6,6,0,0,0-1.2-.81l.06-.24a4.07,4.07,0,0,0,1,.15l1.44.09q.75.06,1.47.06h1.08l1.05,0,1.47-.06q.78,0,1.47-.09t1-.12Z"/><path class="cls-1" d="M453.57,299.76a5.32,5.32,0,0,0,1.23.78l-.06.24a7.3,7.3,0,0,0-1-.09l-1.47-.06-1.47-.06-1.05,0h-1.08l-1.47,0q-.75,0-1.44.09t-1,.12l-.06-.24a6.8,6.8,0,0,0,1.2-.78,2.36,2.36,0,0,0,.66-1.8q.06-1.44.09-3t0-3.54V270.24q0-2,0-3.51t-.09-3a2.47,2.47,0,0,0-.66-1.83,6,6,0,0,0-1.2-.81l.06-.24a4.07,4.07,0,0,0,1,.15l1.44.09q.75.06,1.47.06h1.08l1.05,0,1.47-.06q.78,0,1.47-.09t1-.12l.06.24a4.85,4.85,0,0,0-1.23.81,2.55,2.55,0,0,0-.63,1.83q-.06,1.38-.09,2.79t0,3.21v9.36h23.82v2.28H452.82v10.2q0,1.92,0,3.42t.09,2.94A2.43,2.43,0,0,0,453.57,299.76Z"/><path class="cls-1" d="M436.18,163.57a9,9,0,1,1-9,9A9,9,0,0,1,436.18,163.57Z"/><path class="cls-1" d="M427.83,199.58a8.35,8.35,0,1,0,8.35-8.34A8.36,8.36,0,0,0,427.83,199.58Zm8.35,9a9,9,0,1,1,9-9A9,9,0,0,1,436.18,208.57Z"/><path class="cls-1" d="M427,145.41a9,9,0,1,1,9,9A9,9,0,0,1,427,145.41Zm.63,0a8.35,8.35,0,1,0,8.35-8.35A8.36,8.36,0,0,0,427.62,145.41Z"/><path class="cls-1" d="M407.59,163.89a8.67,8.67,0,1,1-8.66,8.67A8.67,8.67,0,0,1,407.59,163.89Z"/><path class="cls-1" d="M407.38,136.75a8.66,8.66,0,1,1-8.67,8.66A8.66,8.66,0,0,1,407.38,136.75Z"/><path class="cls-1" d="M411.54,262.32a14.64,14.64,0,0,0-6.18,1.35,15.61,15.61,0,0,0-5.13,3.78,18.68,18.68,0,0,0-3.51,5.85,22.31,22.31,0,0,0,0,15.12,18.68,18.68,0,0,0,3.51,5.85,15.25,15.25,0,0,0,5.13,3.75,14.92,14.92,0,0,0,6.18,1.32,20.87,20.87,0,0,0,9.39-1.83,16.09,16.09,0,0,0,6.15-5.61l.36.12-.12,3.84a16,16,0,0,1-3.18,2.55,20.94,20.94,0,0,1-3.87,1.86,25.87,25.87,0,0,1-8.73,1.53,26,26,0,0,1-8.82-1.5,23.17,23.17,0,0,1-7.38-4.23,20,20,0,0,1-5-6.6,20.86,20.86,0,0,1,0-17.22,20.35,20.35,0,0,1,5-6.63,22.44,22.44,0,0,1,7.38-4.23,26.5,26.5,0,0,1,8.82-1.47,27.7,27.7,0,0,1,4.44.36,23.7,23.7,0,0,1,4.29,1.11,20.94,20.94,0,0,1,3.87,1.86,16,16,0,0,1,3.18,2.55l.24,6.36-.36.12a17.65,17.65,0,0,0-6-7.26A16.53,16.53,0,0,0,411.54,262.32Z"/><path class="cls-1" d="M407.59,191.24a8.35,8.35,0,1,0,8.34,8.34A8.36,8.36,0,0,0,407.59,191.24Zm0,17.33a9,9,0,1,1,9-9A9,9,0,0,1,407.59,208.57Z"/><path class="cls-1" d="M373.37,206.33a14.37,14.37,0,0,0,3.64,2.35,46.23,46.23,0,0,1-7-1.83,66,66,0,0,1-20.61-10.17,65,65,0,0,1-18-22.17c-4.95-10.7-7.56-23.22-7.56-37.83V84c0-7.3-2.87-13.56-7.83-17.47-1.3-.79-2.35-1.57-3.66-2.35,2.1.52,4.44,1,7.05,1.82A66.8,66.8,0,0,1,340,76.43a61.55,61.55,0,0,1,18,21.91c5,10.69,7.56,23.48,7.56,37.82v52.69C365.54,196.42,368.41,202.42,373.37,206.33Z"/><path class="cls-1" d="M355.35,263.28a25.81,25.81,0,0,0-3.93-.3v-2h1.68a27.92,27.92,0,0,1,7.08.78,15.16,15.16,0,0,1,4.86,2.13,8.26,8.26,0,0,1,3.72,7,9.29,9.29,0,0,1-1,4.32,10.27,10.27,0,0,1-2.58,3.21,14.06,14.06,0,0,1-3.78,2.22,22.43,22.43,0,0,1-4.62,1.29,8.59,8.59,0,0,1,3.36,2.37,32.62,32.62,0,0,1,3,3.81q1.41,2.1,2.7,4.35a44.89,44.89,0,0,0,2.55,4,14.1,14.1,0,0,0,2.49,2.73,2.53,2.53,0,0,0,2.49.57l.06.36a4.77,4.77,0,0,1-2.16.78,17.54,17.54,0,0,1-2.34.18,8,8,0,0,1-4.74-1.32,11.33,11.33,0,0,1-3.09-3.3,22.68,22.68,0,0,1-2.07-4.32q-.84-2.34-1.68-4.44a19.8,19.8,0,0,0-1.86-3.63,4,4,0,0,0-2.58-1.83h-.33V280a14.57,14.57,0,0,0,2.61-.24,9.48,9.48,0,0,0,3.57-1.41,7.84,7.84,0,0,0,2.58-2.88,9.57,9.57,0,0,0,1-4.59,7.54,7.54,0,0,0-1-4,6.9,6.9,0,0,0-2.52-2.4A10.38,10.38,0,0,0,355.35,263.28Z"/><path class="cls-1" d="M352.05,299.76a5.32,5.32,0,0,0,1.23.78l-.06.24q-.3-.06-1-.12t-1.44-.09l-1.44,0h-2.13l-1.5,0q-.78,0-1.5.09t-1,.12l-.06-.24a6.8,6.8,0,0,0,1.2-.78A2.36,2.36,0,0,0,345,298q.06-1.44.09-3t0-3.51V270.24q0-2,0-3.51t-.09-3a2.52,2.52,0,0,0-.6-1.8,2.06,2.06,0,0,0-1.2-.54l-.06-.24a17.64,17.64,0,0,1,1.8-.09l3.15-.06,3.18,0h.15v2q-.12,2.7-.12,6.87V280q.65.06,1.29.06v2.22H351.3v10.62q0,1.44,0,2.61t.09,2.49A2.43,2.43,0,0,0,352.05,299.76Z"/><path class="cls-1" d="M315.12,286.44l-2.28-5q-1.56-3.36-2.37-5.19l-1.32-3-.9-2.07q-.39-.9-1.11-2.4-.72,1.5-1.2,2.61l-1.05,2.43-1.35,3.12q-.78,1.8-2.1,4.62l-2.22,4.92Zm-20.52,5q.9-1.8,2-4.2l2.76-5.82,3.12-6.57q1.5-3.15,2.73-5.85t2.19-4.86q1-2.16,1.56-3.6h.84q.6,1.44,1.56,3.6t2.19,4.86q1.23,2.7,2.7,5.85t3.09,6.57q1.62,3.42,2.76,5.73t1.95,4q.81,1.71,1.5,3.06T327,297a8,8,0,0,0,1.68,2.28,5.65,5.65,0,0,0,1.86,1.26l-.06.24q-.42-.06-1.14-.12t-1.53-.09l-1.53,0h-2.49l-1.83,0q-1,0-1.83.09t-1.23.12l-.06-.24.69-.3a2.38,2.38,0,0,0,.69-.48,1.42,1.42,0,0,0,.39-.72,2,2,0,0,0-.15-1.08q-.84-2-1.83-4.14t-2.55-5.34h-17.7q-.66,1.62-1.17,2.91l-1,2.43-.84,2.13q-.39,1-.81,2a1.62,1.62,0,0,0-.18,1.08,1.64,1.64,0,0,0,.42.72,2.27,2.27,0,0,0,.72.48l.72.3-.06.24q-.78-.12-2-.18t-2.1-.06q-.84,0-1.89.06t-1.89.18l-.06-.24a5.8,5.8,0,0,0,3.24-3.06q.72-1.44,1.44-2.85T294.6,291.42Z"/><path class="cls-1" d="M289.63,206.33a14.64,14.64,0,0,0,3.66,2.35l-.41-.06.14.06a45.64,45.64,0,0,1-7-1.83,65.92,65.92,0,0,1-20.61-10.17,64.8,64.8,0,0,1-18-22.17c-5-10.7-7.56-23.22-7.56-37.56V80.31a21,21,0,0,0-7.57-13.79c-1.31-.79-2.34-1.57-3.65-2.35,2.09.52,4.44,1,7,1.82,1.43.44,2.81.92,4.18,1.44.72.27,1.44.56,2.14.85l.11,0,1.76.77.58.27c.63.28,1.25.58,1.85.89s1.4.71,2.07,1.08a67,67,0,0,1,7.92,5.1,61.55,61.55,0,0,1,18,21.91c.31.66.6,1.33.88,2a.93.93,0,0,1,.05.1c.25.59.5,1.18.73,1.79.08.2.16.4.22.6.17.4.31.81.47,1.22.09.24.17.48.26.73.22.65.45,1.3.65,2s.42,1.29.61,1.94a2.37,2.37,0,0,1,.09.36c.18.61.36,1.23.53,1.85.07.25.13.5.2.76.14.62.3,1.25.44,1.88s.31,1.37.45,2.06c.24,1.12.44,2.26.63,3.41.09.49.17,1,.23,1.48.12.7.2,1.41.3,2.13.05.31.08.62.12.94.06.51.1,1,.15,1.55.05.33.09.66.11,1,.07.72.13,1.44.18,2.17q.27,3.87.27,7.9v52.69C281.82,196.42,284.68,202.42,289.63,206.33Z"/><path class="cls-1" d="M281.55,72V90.77a71.46,71.46,0,0,0-19.3-22.34,75.7,75.7,0,0,0-22.43-11.59v-37c0-7.56-2.88-13.56-7.83-17.47A14.19,14.19,0,0,0,228.33,0c2.09.52,4.43,1,7,1.83A62.52,62.52,0,0,1,274,34.17C278.94,44.87,281.55,57.65,281.55,72Z"/><path class="cls-1" d="M267.9,280.65a22.43,22.43,0,0,1-4.62,1.29,8.59,8.59,0,0,1,3.36,2.37,32.62,32.62,0,0,1,3,3.81q1.41,2.1,2.7,4.35a44.89,44.89,0,0,0,2.55,4,14.1,14.1,0,0,0,2.49,2.73,2.53,2.53,0,0,0,2.49.57l.06.36a4.77,4.77,0,0,1-2.16.78,17.54,17.54,0,0,1-2.34.18,8,8,0,0,1-4.74-1.32,11.33,11.33,0,0,1-3.09-3.3,22.68,22.68,0,0,1-2.07-4.32q-.84-2.34-1.68-4.44a19.8,19.8,0,0,0-1.86-3.63,4,4,0,0,0-2.58-1.83h-.33V280a14.57,14.57,0,0,0,2.61-.24,9.48,9.48,0,0,0,3.57-1.41,7.84,7.84,0,0,0,2.58-2.88,9.57,9.57,0,0,0,1-4.59,7.54,7.54,0,0,0-1-4,6.9,6.9,0,0,0-2.52-2.4,10.38,10.38,0,0,0-3.51-1.17,25.81,25.81,0,0,0-3.93-.3v-2h1.68a27.92,27.92,0,0,1,7.08.78,15.16,15.16,0,0,1,4.86,2.13,8.26,8.26,0,0,1,3.72,7,9.29,9.29,0,0,1-1,4.32,10.27,10.27,0,0,1-2.58,3.21A14.06,14.06,0,0,1,267.9,280.65Z"/><path class="cls-1" d="M251.46,263.76a2.52,2.52,0,0,0-.6-1.8,2.06,2.06,0,0,0-1.2-.54l-.06-.24a17.64,17.64,0,0,1,1.8-.09l3.15-.06,3.18,0h.15v2q-.12,2.7-.12,6.87V280q.64.06,1.29.06v2.22h-1.29v10.62q0,1.44,0,2.61t.09,2.49a2.43,2.43,0,0,0,.63,1.8,5.32,5.32,0,0,0,1.23.78l-.06.24q-.3-.06-1-.12t-1.44-.09l-1.44,0h-2.13l-1.5,0q-.78,0-1.5.09t-1,.12l-.06-.24a6.8,6.8,0,0,0,1.2-.78,2.36,2.36,0,0,0,.66-1.8q.06-1.44.09-3t0-3.51V270.24q0-2,0-3.51T251.46,263.76Z"/><path class="cls-1" d="M205.64,206.33a14.46,14.46,0,0,0,3.66,2.35,45.73,45.73,0,0,1-7-1.83,66.19,66.19,0,0,1-20.62-10.17,64.92,64.92,0,0,1-18-22.17c-4.95-10.7-7.56-23.22-7.56-37.56V19.82c0-7.56-2.87-13.56-7.82-17.47A14.32,14.32,0,0,0,144.61,0c2.08.52,4.43,1,7,1.83a62.5,62.5,0,0,1,38.62,32.34c4.94,10.7,7.56,23.48,7.56,37.82V188.85C197.82,196.42,200.69,202.42,205.64,206.33Z"/><path class="cls-1" d="M212.7,298.68q3.06.06,6-.06a51,51,0,0,0,5.7-.54,29.73,29.73,0,0,0,5.1-1.23,15.44,15.44,0,0,0,4.17-2.13l.3.24-.51,1.05-.84,1.74q-.45.93-.81,1.74a3.63,3.63,0,0,0-.36,1.05H208.35l-1.44,0q-.75,0-1.44.09t-1,.12l-.06-.24a6.8,6.8,0,0,0,1.2-.78,2.36,2.36,0,0,0,.66-1.8q.06-1.44.09-3t0-3.54V270.24q0-2,0-3.51t-.09-3a2.36,2.36,0,0,0-.66-1.8,6.8,6.8,0,0,0-1.2-.78l.06-.3q.3.06,1,.12t1.44.09l1.44.06,1.05,0h20a4.42,4.42,0,0,0,.24,1.14q.24.78.57,1.68l.63,1.71q.3.81.48,1.23l-.3.36a14.91,14.91,0,0,0-3.87-2.55,20,20,0,0,0-4.38-1.38,28.82,28.82,0,0,0-4.83-.51q-2.52-.06-5.28.12-.06,2.22-.09,3.9t0,3.45v9q4.44-.06,7.11-.21a23.38,23.38,0,0,0,4.11-.51,4,4,0,0,0,2-1,3.58,3.58,0,0,0,.78-1.5l.3.12q-.12,1.08-.18,1.92t-.06,2q0,1.2.06,2.07t.18,1.89l-.3.12a3.83,3.83,0,0,0-.78-1.59,3.65,3.65,0,0,0-2-1,24.47,24.47,0,0,0-4.11-.45q-2.67-.12-7.11-.12V292q0,2,0,3.66T212.7,298.68Z"/><path class="cls-1" d="M185.19,261.93a2.55,2.55,0,0,0-.63,1.83q-.06,1.44-.09,3t0,3.51v21.18q0,2,0,3.54t.09,3a2.43,2.43,0,0,0,.63,1.8,5.32,5.32,0,0,0,1.23.78l-.06.24a7.3,7.3,0,0,0-1-.09l-1.47-.06-1.47-.06-1.05,0H180.3l-1.47,0q-.75,0-1.44.09t-1,.12l-.06-.24a6.8,6.8,0,0,0,1.2-.78,2.36,2.36,0,0,0,.66-1.8q.06-1.44.09-2.94t0-3.42V269.76q0-1.8,0-3.21t-.09-2.79a2.47,2.47,0,0,0-.66-1.83,6,6,0,0,0-1.2-.81l.06-.24a4.07,4.07,0,0,0,1,.15l1.44.09q.75.06,1.47.06h1.08l1.05,0,1.47-.06q.78,0,1.47-.09t1-.12l.06.24A4.85,4.85,0,0,0,185.19,261.93Z"/><path class="cls-1" d="M147.48,261.93a6,6,0,0,0-1.2-.81l.06-.24a4.07,4.07,0,0,0,1,.15l1.44.09q.75.06,1.47.06h1.08l1.05,0,1.47-.06q.78,0,1.47-.09t1-.12l.06.24a4.85,4.85,0,0,0-1.23.81,2.55,2.55,0,0,0-.63,1.83q-.06,1.38-.09,2.79t0,3.21v9.36h23.82v2.28H154.44v10.2q0,1.92,0,3.42t.09,2.94a2.43,2.43,0,0,0,.63,1.8,5.32,5.32,0,0,0,1.23.78l-.06.24a7.3,7.3,0,0,0-1-.09l-1.47-.06-1.47-.06-1.05,0H150.3l-1.47,0q-.75,0-1.44.09t-1,.12l-.06-.24a6.8,6.8,0,0,0,1.2-.78,2.36,2.36,0,0,0,.66-1.8q.06-1.44.09-3t0-3.54V270.24q0-2,0-3.51t-.09-3A2.47,2.47,0,0,0,147.48,261.93Z"/><circle class="cls-1" cx="128.03" cy="171.92" r="8.98"/><path class="cls-1" d="M128,190.6a8.35,8.35,0,1,0,8.35,8.35A8.36,8.36,0,0,0,128,190.6Zm-9,8.35a9,9,0,1,1,9,9A9,9,0,0,1,119.05,199Z"/><path class="cls-1" d="M119.47,144.77a8.35,8.35,0,1,0,8.35-8.34A8.36,8.36,0,0,0,119.47,144.77Zm-.63,0a9,9,0,1,1,9,9A9,9,0,0,1,118.84,144.77Z"/><path class="cls-1" d="M103.74,298a14.78,14.78,0,0,0,6.24,1.35,22.17,22.17,0,0,0,10.68-2.4V285.72a1.57,1.57,0,0,0-.63-1.32,7.81,7.81,0,0,0-1.23-.78l.06-.3a10.61,10.61,0,0,0,1.08.12q.78.06,1.65.09l1.65,0h2.13l1.35,0q.72,0,1.38-.09t1-.12l.06.3a6,6,0,0,0-1.26.78,1.6,1.6,0,0,0-.6,1.32v7.38a19.7,19.7,0,0,1-7.38,6.42,21.72,21.72,0,0,1-10,2.28,26,26,0,0,1-8.82-1.5,23.17,23.17,0,0,1-7.38-4.23,20,20,0,0,1-5-6.6,20.86,20.86,0,0,1,0-17.22,20.35,20.35,0,0,1,5-6.63,22.44,22.44,0,0,1,7.38-4.23,26.5,26.5,0,0,1,8.82-1.47,27.7,27.7,0,0,1,4.44.36,23.7,23.7,0,0,1,4.29,1.11,20.94,20.94,0,0,1,3.87,1.86,16,16,0,0,1,3.18,2.55l.24,6.36-.36.12a17.65,17.65,0,0,0-6-7.26,16.53,16.53,0,0,0-9.69-2.7,14.64,14.64,0,0,0-6.18,1.35,15.61,15.61,0,0,0-5.13,3.78,18.68,18.68,0,0,0-3.51,5.85,20.84,20.84,0,0,0-1.32,7.56,21.09,21.09,0,0,0,1.29,7.5,18.25,18.25,0,0,0,3.48,5.85A15.61,15.61,0,0,0,103.74,298Z"/><circle class="cls-1" cx="99.44" cy="171.92" r="8.66"/><path class="cls-1" d="M99.23,136.11a8.67,8.67,0,1,1-8.66,8.66A8.66,8.66,0,0,1,99.23,136.11Z"/><path class="cls-1" d="M99.44,190a9,9,0,1,1-9,9A9,9,0,0,1,99.44,190Zm0,17.32A8.35,8.35,0,1,0,91.1,199,8.36,8.36,0,0,0,99.44,207.29Z"/><path class="cls-1" d="M66.42,298a2.43,2.43,0,0,0,.63,1.8,5.32,5.32,0,0,0,1.23.78l-.06.24a7.3,7.3,0,0,0-1-.09l-1.47-.06-1.47-.06-1.05,0H62.16l-1.47,0q-.75,0-1.44.09t-1,.12l-.06-.24a6.8,6.8,0,0,0,1.2-.78A2.36,2.36,0,0,0,60,298q.06-1.44.09-3t0-3.54V270.24q0-2,0-3.51t-.09-3a2.47,2.47,0,0,0-.66-1.83,6,6,0,0,0-1.2-.81l.06-.24a4.07,4.07,0,0,0,1,.15l1.44.09q.75.06,1.47.06h1.08l1.05,0,1.47-.06q.78,0,1.47-.09t1-.12l.06.24a4.85,4.85,0,0,0-1.23.81,2.55,2.55,0,0,0-.63,1.83q-.06,1.44-.09,3t0,3.51v21.18q0,2,0,3.54T66.42,298Z"/><path class="cls-1" d="M38.28,263.76q-.06,1.44-.09,3t0,3.51v21.18q0,2,0,3.54t.09,3a2.43,2.43,0,0,0,.63,1.8,5.32,5.32,0,0,0,1.23.78l-.06.24a7.3,7.3,0,0,0-1-.09l-1.47-.06-1.47-.06-1,0H34l-1.47,0q-.75,0-1.44.09t-1.05.12l-.06-.24a6.8,6.8,0,0,0,1.2-.78,2.36,2.36,0,0,0,.66-1.8q.06-1.44.09-2.94t0-3.42V269.76q0-1.8,0-3.21t-.09-2.79a2.47,2.47,0,0,0-.66-1.83,6,6,0,0,0-1.2-.81l.06-.24a4.07,4.07,0,0,0,1.05.15l1.44.09q.75.06,1.47.06H35.1l1,0,1.47-.06q.78,0,1.47-.09t1-.12l.06.24a4.85,4.85,0,0,0-1.23.81A2.55,2.55,0,0,0,38.28,263.76Z"/><path class="cls-1" d="M9.09,300.69l-1.47-.06-1.47-.06-1.05,0H4l-1.47,0q-.75,0-1.44.09t-1,.12L0,300.54a6.8,6.8,0,0,0,1.2-.78,2.36,2.36,0,0,0,.66-1.8q.06-1.44.09-3t0-3.54V270.24q0-2,0-3.51t-.09-3a2.47,2.47,0,0,0-.66-1.83,6,6,0,0,0-1.2-.81l.06-.24a4.07,4.07,0,0,0,1.05.15l1.44.09q.75.06,1.47.06H5.1l1.05,0,1.47-.06q.78,0,1.47-.09t1-.12l.06.24a4.85,4.85,0,0,0-1.23.81,2.55,2.55,0,0,0-.63,1.83q-.06,1.38-.09,2.79t0,3.21v9.36H32v2.28H8.16v10.2q0,1.92,0,3.42T8.28,298a2.43,2.43,0,0,0,.63,1.8,5.32,5.32,0,0,0,1.23.78l-.06.24A7.3,7.3,0,0,0,9.09,300.69Z"/></g></g></svg>